<svg width="49" height="11" viewBox="0 0 49 11" fill="none" xmlns="http://www.w3.org/2000/svg">
<path d="M4.84061 9.24364C4.56895 9.23921 4.30083 9.18116 4.05166 9.07283C3.8025 8.96449 3.57718 8.808 3.38866 8.61235C3.20013 8.4167 3.05211 8.18573 2.95309 7.93271C2.85408 7.6797 2.80601 7.40961 2.81166 7.13797C2.80253 6.58998 3.01092 6.06071 3.3912 5.66604C3.77148 5.27138 4.29266 5.0435 4.84061 5.03229C5.20318 5.01801 5.56281 5.10246 5.88112 5.27663C6.19943 5.4508 6.46446 5.70815 6.64791 6.02119C6.68124 6.07497 6.69895 6.13696 6.69906 6.20022V8.05867C6.70787 8.10658 6.70787 8.15569 6.69906 8.2036C6.51106 8.52772 6.23933 8.7953 5.91236 8.97828C5.58538 9.16127 5.2152 9.25293 4.84061 9.24364ZM8.52341 10.8463V3.45517H6.69906V4.0775C6.4214 3.82294 6.09626 3.62565 5.74226 3.49692C5.38825 3.36819 5.01233 3.31055 4.63601 3.3273C4.14317 3.33164 3.65614 3.43418 3.20338 3.62893C2.75063 3.82368 2.34124 4.10672 1.99914 4.46152C1.65704 4.81632 1.3891 5.23575 1.21098 5.6953C1.03285 6.15485 0.948123 6.6453 0.961738 7.13797C0.943512 7.63428 1.02471 8.12922 1.20055 8.5937C1.37639 9.05817 1.64332 9.4828 1.98566 9.84261C2.32799 10.2024 2.73881 10.4901 3.19397 10.6889C3.64912 10.8876 4.13941 10.9933 4.63601 10.9998C5.01461 11.0115 5.3918 10.9483 5.74586 10.8137C6.09992 10.6791 6.42387 10.4758 6.69906 10.2155V10.8549L8.52341 10.8463ZM16.4517 10.8463V6.84812C16.4517 5.92564 16.0852 5.04095 15.4329 4.38866C14.7806 3.73637 13.8959 3.36992 12.9735 3.36992C12.051 3.36992 11.1663 3.73637 10.514 4.38866C9.86172 5.04095 9.49526 5.92564 9.49526 6.84812V10.8463H11.3196V6.84812C11.3196 6.63093 11.3624 6.41587 11.4455 6.21522C11.5286 6.01456 11.6504 5.83225 11.804 5.67867C11.9576 5.5251 12.1399 5.40328 12.3406 5.32016C12.5412 5.23705 12.7563 5.19427 12.9735 5.19427C13.1906 5.19427 13.4057 5.23705 13.6064 5.32016C13.807 5.40328 13.9893 5.5251 14.1429 5.67867C14.2965 5.83225 14.4183 6.01456 14.5014 6.21522C14.5845 6.41587 14.6273 6.63093 14.6273 6.84812V10.8463H16.4517ZM21.0893 9.24364C20.8176 9.23921 20.5495 9.18116 20.3003 9.07283C20.0511 8.96449 19.8258 8.808 19.6373 8.61235C19.4488 8.4167 19.3008 8.18573 19.2017 7.93271C19.1027 7.6797 19.0547 7.40961 19.0603 7.13797C19.0533 6.68412 19.1955 6.24052 19.4651 5.87536C19.7347 5.5102 20.1168 5.24371 20.5526 5.11684C20.9884 4.98997 21.4539 5.00975 21.8773 5.17314C22.3008 5.33652 22.6589 5.63448 22.8966 6.02119C22.9299 6.07497 22.9476 6.13696 22.9477 6.20022V8.06719C22.9565 8.11224 22.9565 8.15855 22.9477 8.2036C22.7625 8.52261 22.4962 8.78689 22.1758 8.96957C21.8553 9.15226 21.4922 9.24682 21.1234 9.24364M24.8062 10.8463V1.23867H22.9477V4.0775C22.6713 3.82359 22.3476 3.62664 21.9951 3.49792C21.6426 3.36919 21.2681 3.31121 20.8932 3.3273C20.3966 3.33268 19.9061 3.4373 19.4506 3.635C18.995 3.83269 18.5835 4.11948 18.2404 4.47848C17.8973 4.83749 17.6294 5.26148 17.4525 5.72552C17.2756 6.18956 17.1933 6.68428 17.2104 7.18059C17.1979 7.67409 17.2837 8.16514 17.4626 8.62521C17.6416 9.08528 17.9102 9.5052 18.2529 9.86055C18.5956 10.2159 19.0054 10.4996 19.4587 10.6952C19.912 10.8908 20.3996 10.9943 20.8932 10.9998C21.2705 11.0118 21.6465 10.9486 21.9992 10.814C22.3519 10.6794 22.6744 10.4759 22.9477 10.2155V10.8549L24.8062 10.8463ZM27.6024 10.8463V6.89927C27.5704 6.65736 27.5944 6.41134 27.6725 6.18017C27.7506 5.94899 27.8807 5.73883 28.0529 5.56588C28.225 5.39292 28.4345 5.26179 28.6653 5.18258C28.8961 5.10338 29.142 5.07821 29.3841 5.10902V3.3273C27.0312 3.3273 25.778 4.57194 25.778 6.91632V10.8634L27.6024 10.8463ZM33.3738 9.14134C32.9759 9.14134 32.5869 9.02335 32.256 8.80228C31.9252 8.58121 31.6673 8.26699 31.515 7.89937C31.3628 7.53174 31.3229 7.12721 31.4005 6.73694C31.4782 6.34667 31.6698 5.98819 31.9512 5.70682C32.2325 5.42545 32.591 5.23383 32.9813 5.1562C33.3716 5.07857 33.7761 5.11842 34.1437 5.27069C34.5113 5.42297 34.8256 5.68084 35.0466 6.01169C35.2677 6.34255 35.3857 6.73153 35.3857 7.12945C35.3868 7.39581 35.3351 7.65975 35.2334 7.90595C35.1317 8.15215 34.9822 8.37571 34.7934 8.56366C34.6047 8.75161 34.3805 8.90022 34.1339 9.00085C33.8872 9.10147 33.6231 9.15213 33.3567 9.14987M33.3567 10.9998C34.1161 10.9964 34.8574 10.7683 35.4872 10.3442C36.1171 9.92002 36.6072 9.31888 36.8959 8.61654C37.1845 7.91421 37.2587 7.14213 37.1091 6.39767C36.9595 5.65322 36.5929 4.96973 36.0553 4.43339C35.5178 3.89705 34.8335 3.53189 34.0887 3.38396C33.3439 3.23602 32.572 3.31193 31.8703 3.60212C31.1686 3.89231 30.5686 4.38379 30.1458 5.01456C29.7231 5.64533 29.4966 6.38716 29.4949 7.14649C29.4949 7.65324 29.5949 8.155 29.789 8.62306C29.9832 9.09112 30.2678 9.51628 30.6265 9.87421C30.9852 10.2321 31.411 10.5158 31.8795 10.7089C32.348 10.9021 32.85 11.0009 33.3567 10.9998ZM38.9406 2.90105C39.2218 2.8988 39.4906 2.78553 39.6886 2.58593C39.8866 2.38633 39.9977 2.11657 39.9977 1.83542C39.9977 1.55506 39.8863 1.28618 39.6881 1.08794C39.4898 0.889693 39.221 0.77832 38.9406 0.77832C38.6603 0.77832 38.3914 0.889693 38.1931 1.08794C37.9949 1.28618 37.8835 1.55506 37.8835 1.83542C37.8835 2.11657 37.9946 2.38633 38.1926 2.58593C38.3906 2.78553 38.6595 2.8988 38.9406 2.90105ZM39.8528 3.45517H38.0284V10.8463H39.8528V3.45517ZM44.5586 9.24364C44.1931 9.23978 43.8349 9.14085 43.5192 8.95657C43.2036 8.7723 42.9413 8.50903 42.7583 8.19266C42.5752 7.87629 42.4777 7.51772 42.4752 7.15221C42.4728 6.78671 42.5655 6.42686 42.7443 6.10806C42.9231 5.78927 43.1818 5.5225 43.4949 5.33401C43.8081 5.14551 44.1649 5.04178 44.5303 5.03302C44.8957 5.02425 45.2571 5.11076 45.579 5.28402C45.9008 5.45728 46.172 5.71134 46.3659 6.02119C46.3992 6.07497 46.4169 6.13696 46.417 6.20022V8.07572C46.4219 8.11821 46.4219 8.16111 46.417 8.2036C46.2319 8.52261 45.9655 8.78689 45.6451 8.96957C45.3246 9.15226 44.9615 9.24682 44.5927 9.24364M48.2755 10.8463V1.23867H46.417V4.0775C46.1394 3.82294 45.8142 3.62565 45.4602 3.49692C45.1062 3.36819 44.7303 3.31055 44.354 3.3273C43.8597 3.33158 43.3712 3.43466 42.9173 3.63047C42.4634 3.82628 42.0532 4.11086 41.7109 4.46749C41.3685 4.82411 41.101 5.24558 40.9239 5.70712C40.7468 6.16865 40.6638 6.66094 40.6797 7.15502C40.665 7.64963 40.7487 8.14224 40.926 8.60422C41.1033 9.0662 41.3706 9.48832 41.7125 9.84606C42.0544 10.2038 42.464 10.49 42.9174 10.6881C43.3709 10.8862 43.8592 10.9921 44.354 10.9998C44.7331 11.0099 45.1105 10.9451 45.4646 10.809C45.8186 10.673 46.1423 10.4684 46.417 10.207V10.8463H48.2755Z" fill="white"/>
</svg>
