<svg width="11" height="13" viewBox="0 0 11 13" fill="none" xmlns="http://www.w3.org/2000/svg">
<path d="M6.36871 1.91167C6.59277 1.61007 6.87898 1.36009 7.20798 1.17863C7.53697 0.997174 7.9011 0.888468 8.27573 0.859863C8.31272 1.21326 8.2759 1.57049 8.16761 1.90892C8.05931 2.24735 7.8819 2.55959 7.64661 2.82586C7.44004 3.10821 7.16416 3.33254 6.84561 3.47718C6.52706 3.62182 6.1766 3.68188 5.82807 3.65157C5.78868 3.34126 5.81469 3.02614 5.90442 2.72648C5.99414 2.42682 6.14561 2.14927 6.34905 1.91167H6.36871ZM5.94603 4.33967C6.64719 4.09042 7.37173 3.91258 8.10862 3.80885C8.57284 3.7861 9.03517 3.88255 9.45157 4.08903C9.86797 4.29551 10.2246 4.60514 10.4875 4.98845C10.0849 5.22201 9.75111 5.5577 9.51983 5.96158C9.28854 6.36547 9.16796 6.82324 9.17025 7.28866C9.17182 7.81428 9.32715 8.32796 9.6171 8.76638C9.90705 9.2048 10.319 9.5488 10.802 9.75598C10.802 9.75598 9.66175 12.9802 8.11845 12.9802C7.41069 12.9802 6.86021 12.4985 6.15245 12.4985C5.4447 12.4985 4.63864 12.9999 4.18646 12.9999C2.69231 12.9999 0.913086 9.94275 0.913086 7.49509C0.913086 5.04743 2.41707 3.80885 3.86207 3.80885C4.7566 3.80885 5.46436 4.33967 5.94603 4.33967Z" fill="white"/>
</svg>
