<svg width="35" height="18" viewBox="0 0 35 18" fill="none" xmlns="http://www.w3.org/2000/svg">
<g clip-path="url(#clip0_17_9457)">
<g clip-path="url(#clip1_17_9457)">
<path d="M20.1922 1.74609V4.4384H23.598V5.40763H20.1922V13.4846C20.1545 14.1334 20.2941 14.7802 20.596 15.3557C20.7404 15.5765 20.9416 15.7543 21.1785 15.8704C21.4154 15.9865 21.6792 16.0365 21.9422 16.0153C22.2064 16.0382 22.4722 16.0382 22.7364 16.0153C22.9273 15.987 23.1161 15.9465 23.3018 15.8942L23.423 16.8096C22.9018 17.0193 22.342 17.1156 21.7807 17.0922C21.3161 17.104 20.8551 17.0072 20.4345 16.8096C20.0758 16.6358 19.7728 16.3654 19.5595 16.0288C19.3318 15.6636 19.1807 15.256 19.1153 14.8307C19.0208 14.3293 18.9757 13.8198 18.9807 13.3096V5.43456H16.9614V4.4384H18.9807V2.21725L20.1922 1.74609ZM25.5768 4.4384L28.3903 12.0711C28.6326 12.6634 28.848 13.2288 29.0364 13.7538L29.6153 15.3422L30.221 13.8615C30.423 13.323 30.6383 12.7576 30.8807 12.1653L33.721 4.4384H34.9999L30.1133 16.7288H29.0633L24.3518 4.4384H25.5768Z" fill="white"/>
<path d="M7.47115 1.84029C7.77799 1.42726 8.16993 1.08493 8.62047 0.836436C9.07102 0.587941 9.56966 0.439075 10.0827 0.399902C10.1325 0.883819 10.0817 1.37281 9.93345 1.83615C9.78519 2.29948 9.54267 2.72713 9.22115 3.09221C8.93738 3.47791 8.55943 3.78439 8.12342 3.98236C7.68742 4.18033 7.20792 4.26318 6.73077 4.22298C6.68197 3.7972 6.72132 3.36593 6.84638 2.95602C6.97144 2.5461 7.17953 2.16631 7.45769 1.84029H7.47115ZM6.89231 5.16529C7.85198 4.82216 8.84437 4.57858 9.85385 4.43836C10.4877 4.40694 11.119 4.53902 11.6872 4.8219C12.2553 5.10478 12.7411 5.52898 13.0981 6.05375C12.5484 6.37426 12.0932 6.83447 11.7788 7.38769C11.4643 7.9409 11.3018 8.56744 11.3077 9.20375C11.3098 9.92356 11.5226 10.627 11.9196 11.2274C12.3167 11.8278 12.8808 12.2989 13.5423 12.5826C13.5423 12.5826 11.9808 16.9845 9.86731 16.9845C8.89808 16.9845 8.14423 16.3384 7.175 16.3384C6.20577 16.3384 5.08846 17.0114 4.48269 17.0114C2.43654 17.0114 0 12.8384 0 9.47298C0 6.10759 2.05962 4.43836 4.03846 4.43836C5.26346 4.43836 6.23269 5.16529 6.89231 5.16529Z" fill="white"/>
</g>
</g>
<defs>
<clipPath id="clip0_17_9457">
<rect width="35" height="17.5" fill="white" transform="translate(0 0.399902)"/>
</clipPath>
<clipPath id="clip1_17_9457">
<rect width="35" height="17.5" fill="white" transform="translate(0 0.399902)"/>
</clipPath>
</defs>
</svg>
