<svg width="85" height="12" viewBox="0 0 85 12" fill="none" xmlns="http://www.w3.org/2000/svg">
<path d="M15.8393 7.71771C15.8056 6.82083 16.1533 5.94982 16.8013 5.30803C17.4493 4.66624 18.3408 4.30985 19.2678 4.32207C20.536 4.28554 21.6939 5.01703 22.1701 6.15571L21.0478 6.67354C20.7756 5.92646 20.0328 5.43787 19.2151 5.4681C18.6149 5.50691 18.0563 5.7782 17.6652 6.22069C17.2742 6.66317 17.0838 7.23953 17.137 7.8196C17.0512 9.01939 17.9771 10.0633 19.2151 10.1626C20.0603 10.1936 20.8365 9.71302 21.1617 8.95712L22.284 9.41552C21.7848 10.5589 20.6107 11.2875 19.3291 11.2492C18.3771 11.2453 17.4677 10.8669 16.8095 10.201C16.1514 9.53498 15.8012 8.63866 15.8393 7.71771ZM24.4148 4.50883L24.3534 5.42565H24.4148C24.8927 4.74133 25.6923 4.33356 26.5455 4.33905C28.2553 4.33905 29.0883 5.42565 29.0883 7.03009V10.9775H27.8432V7.19989C27.8432 5.88406 27.133 5.42565 26.186 5.42565C25.1333 5.51566 24.3513 6.40895 24.4323 7.42909V10.9775H23.1697V1.58858H24.4148V4.50883ZM30.3948 10.9775V4.50883H31.5786V5.53601H31.6399C32.0037 4.81351 32.7564 4.35065 33.5865 4.33905C33.9114 4.32553 34.2352 4.38357 34.5335 4.50883L34.06 5.65486C33.8519 5.58129 33.6327 5.54115 33.4112 5.53601C32.9152 5.5508 32.4471 5.76152 32.1158 6.11915C31.7845 6.47678 31.6189 6.95014 31.6575 7.42909V10.9775H30.3948ZM41.3904 7.71771C41.4545 8.94512 40.8146 10.1069 39.726 10.7392C38.6375 11.3715 37.2776 11.3715 36.1891 10.7392C35.1006 10.1069 34.4607 8.94512 34.5247 7.71771C34.4607 6.49026 35.1006 5.32855 36.1891 4.69621C37.2776 4.06387 38.6375 4.06387 39.726 4.69621C40.8146 5.32855 41.4545 6.49026 41.3904 7.71771ZM40.1453 7.71771C40.2196 6.91417 39.8188 6.13891 39.1099 5.71492C38.4009 5.29093 37.5054 5.29093 36.7965 5.71492C36.0875 6.13891 35.6868 6.91417 35.7611 7.71771C35.6868 8.52122 36.0875 9.29648 36.7965 9.72051C37.5054 10.1445 38.4009 10.1445 39.1099 9.72051C39.8188 9.29648 40.2196 8.52122 40.1453 7.71771ZM42.39 4.50883H43.5474V5.42565H43.6088C44.0625 4.74603 44.8422 4.3366 45.6781 4.33905C46.5932 4.27211 47.4504 4.77758 47.8088 5.59543C48.2882 4.80556 49.1687 4.3258 50.1149 4.33905C51.7108 4.33905 52.4736 5.42565 52.4736 7.03009V10.9775H51.2022V7.19989C51.2022 5.88406 50.6673 5.42565 49.7204 5.42565C48.6852 5.53709 47.9284 6.4239 48.0105 7.42909V10.9775H46.7654V7.19989C46.7654 5.88406 46.2305 5.42565 45.2836 5.42565C44.2379 5.52431 43.466 6.41497 43.5474 7.42909V10.9775H42.3286V4.50883H42.39ZM53.3943 7.71771C53.3516 6.84891 53.6711 5.9999 54.2811 5.36139C54.8912 4.72289 55.7407 4.3484 56.6386 4.32207C58.594 4.32207 59.8917 5.6973 59.8917 7.76019V7.98938H54.6306C54.6236 8.54086 54.845 9.07214 55.2453 9.46452C55.6457 9.85691 56.1917 10.0777 56.7613 10.0777C57.5494 10.1132 58.2785 9.67422 58.594 8.97406L59.7163 9.43252C59.2207 10.5478 58.0672 11.2529 56.814 11.2068C55.8758 11.2031 54.9799 10.8285 54.3342 10.1696C53.6884 9.51075 53.3489 8.62492 53.3943 7.71771ZM56.6386 5.42565C55.71 5.43931 54.9206 6.0862 54.7534 6.97067H58.594C58.4792 6.02941 57.6141 5.34586 56.6386 5.42565ZM60.6019 7.71771C60.5682 6.82083 60.9159 5.94982 61.5639 5.30803C62.2119 4.66624 63.1034 4.30985 64.0304 4.32207C65.3001 4.28051 66.4607 5.01372 66.9327 6.15571L65.8104 6.61412C65.5536 5.85022 64.8071 5.34189 63.9777 5.36623C63.3782 5.40494 62.8203 5.67652 62.4307 6.11931C62.041 6.56209 61.8527 7.13851 61.9084 7.71771C61.8074 8.92242 62.7335 9.97859 63.9777 10.0777C64.8214 10.1126 65.5983 9.63493 65.9243 8.8807L67.0467 9.3391C66.5467 10.4809 65.3719 11.2065 64.0917 11.1643C63.1528 11.1929 62.2434 10.8443 61.5792 10.2012C60.9149 9.55809 60.5548 8.67767 60.5844 7.76865L60.6019 7.71771ZM67.7043 9.03354C67.7043 7.59887 69.0634 6.80088 70.5975 6.80088C71.2091 6.77547 71.8157 6.91351 72.3516 7.19989V6.97067C72.3481 6.53472 72.1572 6.11989 71.8241 5.82646C71.4909 5.53304 71.0466 5.38773 70.5975 5.42565C69.9444 5.41153 69.3434 5.77063 69.0634 6.34247L67.9411 5.88406C68.576 4.72992 69.926 4.12508 71.2458 4.40352C72.5654 4.68195 73.533 5.77577 73.6142 7.08103V10.9775H72.4307V10.0777H72.3689C71.8824 10.7786 71.0577 11.1887 70.1858 11.1643C69.5617 11.2259 68.9394 11.033 68.4685 10.6318C67.9975 10.2306 67.7206 9.65756 67.7043 9.05048V9.03354ZM72.3689 8.18464C71.8962 7.88659 71.3368 7.74367 70.7732 7.77712C69.4755 7.77712 68.9407 8.46472 68.9407 9.04201C68.9407 9.61924 69.6509 10.0777 70.2998 10.0777C71.4117 10.1014 72.3356 9.25254 72.3689 8.1761V8.18464ZM74.386 9.33063L75.5084 8.87223C75.7764 9.58731 76.476 10.0651 77.2618 10.0692C78.051 10.0777 78.6208 9.72114 78.6208 9.14391C78.6208 8.80428 78.4369 8.45625 77.7442 8.29494L76.3851 8.00632C75.7979 7.83654 74.6311 7.37814 74.6311 6.23211C74.6311 5.08608 75.8763 4.34754 77.2618 4.34754C78.3106 4.32637 79.2712 4.9101 79.7085 5.83313L78.6208 6.28305C78.3522 5.70918 77.7338 5.36693 77.0862 5.43414C76.3761 5.43414 75.7888 5.72277 75.7888 6.23211C75.7888 6.74146 76.1394 6.86879 76.6655 6.97916L77.9635 7.26778C78.9839 7.34851 79.7814 8.15361 79.8224 9.14391C79.8224 10.2899 78.7611 11.1473 77.1917 11.1473C75.9423 11.1866 74.8046 10.4535 74.3597 9.32216L74.386 9.33063ZM81.4792 8.9826V5.58695H80.2958V4.50883H81.4792V2.56483H82.7245V4.50883H84.3202V5.59543H82.7245V8.86376C82.7245 9.60231 83.0139 9.89092 83.6011 9.89092C83.8052 9.91528 84.0121 9.8735 84.1891 9.77209L84.6007 10.8077C84.2821 10.9266 83.9426 10.9843 83.6011 10.9775C83.0264 11.058 82.4461 10.875 82.0304 10.4825C81.6146 10.0899 81.4105 9.53241 81.4792 8.97406V8.9826ZM12.5122 3.86763H8.36476C9.16494 4.36547 9.65013 5.22186 9.65367 6.14271C9.64472 6.34258 9.61827 6.54137 9.57475 6.73695C9.52859 7.0361 9.42447 7.32414 9.26788 7.58582L6.63737 12.0002H6.87411C8.4863 12.0115 10.0365 11.3994 11.1806 10.2997C12.3248 9.19993 12.9682 7.70362 12.9682 6.14271C12.9768 5.3642 12.8186 4.5924 12.5034 3.87612L12.5122 3.86763ZM6.94426 8.76582C6.19159 8.74604 5.47695 8.44125 4.95384 7.91692C4.76186 7.7402 4.59391 7.5405 4.45404 7.32268L4.39266 7.28027L1.82352 3.0357C0.744003 4.72029 0.619345 6.81961 1.49235 8.61291C2.36536 10.4062 4.11718 11.6492 6.14634 11.9153L8.25072 8.42626C7.85424 8.65005 7.40322 8.76728 6.94426 8.76582ZM6.94426 0.276744C5.02345 0.272584 3.21575 1.15553 2.07781 2.65369L4.14715 6.04933C4.1633 6.09907 4.1633 6.1524 4.14715 6.20214V6.09178C4.1513 4.79594 5.12328 3.69328 6.44446 3.48562C6.66756 3.42951 6.89818 3.40661 7.12839 3.41771H12.2842C11.2468 1.4878 9.19139 0.272253 6.94426 0.259766V0.276744ZM9.1276 6.14271C9.1276 7.31484 8.14619 8.26502 6.93549 8.26502C5.72483 8.26502 4.74339 7.31484 4.74339 6.14271C4.74339 4.96593 5.72876 4.01194 6.94426 4.01194C7.5293 4.00252 8.09302 4.22455 8.50511 4.62672C8.91721 5.02889 9.14197 5.5764 9.1276 6.14271Z" fill="#F9F9F9"/>
</svg>
