<svg width="59" height="13" viewBox="0 0 59 13" fill="none" xmlns="http://www.w3.org/2000/svg">
<g clip-path="url(#clip0_17_9911)">
<path d="M37.7505 12.858H36.4343V4.71445H37.2487H38.7164C39.0539 4.71135 39.3876 4.78472 39.6926 4.92903C39.9977 5.07335 40.2661 5.28488 40.4777 5.54774C40.6617 5.7831 40.7912 6.0564 40.8567 6.3479C40.9222 6.63939 40.9221 6.9418 40.8565 7.23326C40.8113 7.50858 40.7021 7.76942 40.5376 7.99476C40.3731 8.22011 40.158 8.40364 39.9095 8.53055C40.3669 8.66381 40.7623 8.95466 41.0258 9.35156C41.2892 9.74846 41.4037 10.2258 41.3489 10.699C41.3094 11.2409 41.0762 11.7506 40.692 12.1348C40.3078 12.5191 39.7981 12.7522 39.2562 12.7917C39.0145 12.8241 38.7709 12.84 38.527 12.839L37.7505 12.858ZM37.4949 11.9679H37.921H39.0289C39.3866 11.9568 39.726 11.8074 39.9758 11.5512C40.1415 11.3609 40.2528 11.1293 40.2978 10.881C40.3428 10.6326 40.3199 10.3767 40.2315 10.1403C40.178 9.89383 40.0472 9.67088 39.8581 9.50395C39.6691 9.33702 39.4316 9.23485 39.1804 9.21233C38.7808 9.17294 38.3793 9.15713 37.9778 9.16499H37.4949V11.9679ZM37.6085 8.26541H38.0536C38.3726 8.27812 38.6918 8.24301 39.0005 8.16125C39.2279 8.09857 39.43 7.96609 39.5781 7.78248C39.6983 7.61105 39.7771 7.41409 39.8083 7.20707C39.8395 7.00004 39.8223 6.7886 39.758 6.58936C39.7367 6.36677 39.6411 6.15786 39.4864 5.99635C39.3318 5.83485 39.1272 5.73018 38.9058 5.69925C38.5634 5.65683 38.2186 5.63785 37.8736 5.64243H37.457V8.26541H37.6085Z" fill="white"/>
<path d="M34.2373 12.8485L33.4419 10.7274H30.3455L29.5595 12.8485H28.4421L31.5291 4.68604H32.2582L35.3641 12.8485H34.2373ZM33.1294 9.78048L31.8889 6.42837L30.6863 9.78048H33.1294Z" fill="white"/>
<path d="M48.1099 12.8387V4.70459H52.1532L51.8123 5.61364H49.1704V8.23661H51.7745V9.12672H49.1799V11.9486H52.1816V12.8387H48.1099Z" fill="white"/>
<path d="M25.4593 12.8484V5.6234H23.1772V4.71436H29.0671L28.7452 5.61393H26.5199V12.8484H25.4593Z" fill="white"/>
<path d="M55.2779 12.8484V5.61393H52.9863V4.71436H58.8857L58.5637 5.61393H56.329V12.8484H55.2779Z" fill="white"/>
<path d="M42.9111 12.839V4.71436H43.9622V11.9488H46.9166V12.053C46.9166 12.053 46.9166 12.1098 46.9166 12.1382V12.82L42.9111 12.839Z" fill="white"/>
<path d="M18.3006 12.9998C18.0628 12.9997 17.8253 12.9807 17.5904 12.943C17.0318 12.8729 16.4999 12.6625 16.0446 12.3313C15.5892 12.0002 15.2252 11.559 14.9864 11.0491C14.5981 10.2819 14.4029 9.43156 14.4178 8.57183C14.4326 7.7121 14.6571 6.86898 15.0716 6.11565C15.3295 5.61447 15.7225 5.19544 16.2061 4.90594C16.6897 4.61644 17.2447 4.46803 17.8082 4.47748C18.0953 4.47978 18.3813 4.51473 18.6605 4.58164C19.0982 4.68847 19.5042 4.89789 19.8451 5.19261C20.1859 5.48733 20.4517 5.8589 20.6206 6.27663C20.9622 7.12687 21.114 8.04142 21.0657 8.95642V9.02271H15.886C15.8762 9.67243 16.0717 10.3087 16.4447 10.8408C16.6662 11.1337 16.9523 11.3716 17.2808 11.5358C17.6093 11.7001 17.9713 11.7863 18.3385 11.7877H18.4521C19.0726 11.7841 19.6832 11.6315 20.2324 11.3427L20.4502 11.229L20.9141 12.176H20.8668C20.5222 12.4017 20.1455 12.5741 19.7494 12.6873C19.2845 12.8623 18.7963 12.9676 18.3006 12.9998ZM19.6169 7.91481C19.632 7.3404 19.4627 6.77625 19.1339 6.30504C18.9833 6.09102 18.7833 5.91646 18.5509 5.79613C18.3185 5.6758 18.0605 5.61325 17.7988 5.61378C17.436 5.61514 17.0836 5.73483 16.795 5.95468C16.351 6.28553 16.0496 6.77311 15.9523 7.31824C15.9523 7.46028 15.9523 7.60232 15.886 7.75383C15.8197 7.90534 15.886 7.83905 15.886 7.8864L19.6169 7.91481Z" fill="white"/>
<path d="M1.99464 12.8199V5.82219H0.934082V4.66694H1.99464V3.95675C1.97074 3.54992 1.97074 3.14204 1.99464 2.73522C2.01009 2.44516 2.08366 2.16116 2.21098 1.90008C2.3383 1.639 2.51678 1.40617 2.73582 1.21539C2.95486 1.02462 3.20999 0.879793 3.48608 0.789516C3.76216 0.69924 4.05357 0.665352 4.343 0.689864H4.64602C4.87311 0.712499 5.09796 0.75367 5.31834 0.812964L5.6687 0.898187V0.917125L5.38462 2.07237H5.32781L5.11948 2.01556C4.98953 1.97606 4.8565 1.94755 4.72177 1.93033H4.46611C4.34352 1.91437 4.21939 1.91437 4.09681 1.93033C3.92227 1.97066 3.76464 2.06437 3.64584 2.19845C3.52704 2.33252 3.45298 2.50028 3.43396 2.6784C3.39445 2.90682 3.37229 3.1379 3.36767 3.36966C3.36767 3.67267 3.36767 3.97569 3.36767 4.31658V4.66694H5.43197L5.00585 5.82219H3.36767V12.8199H1.99464Z" fill="white"/>
<path d="M10.0056 12.8199V4.67639H11.1703L11.3218 5.62332L11.3502 5.54756C11.4544 5.43393 11.5586 5.3203 11.6722 5.21614C12.1553 4.74284 12.8045 4.47769 13.4808 4.47754H13.7176C13.8778 4.49561 14.0362 4.52729 14.191 4.57223L14.4088 4.62905H14.4846L13.9827 5.92633H13.9164C13.7101 5.82421 13.4837 5.76923 13.2536 5.76535C12.9072 5.78685 12.5761 5.91596 12.3066 6.13465L11.6911 6.63652L11.3502 6.85432V12.8199H10.0056Z" fill="white"/>
<path d="M7.91299 4.67627H6.56836V12.8198H7.91299V4.67627Z" fill="white"/>
<path d="M7.22172 2.99108C7.10697 2.9936 6.99288 2.97318 6.88614 2.931C6.7794 2.88883 6.68216 2.82576 6.60012 2.74549C6.51809 2.66522 6.45292 2.56937 6.40844 2.46357C6.36395 2.35777 6.34105 2.24415 6.34108 2.12938C6.34036 2.00476 6.36425 1.88122 6.41137 1.76585C6.45849 1.65048 6.52793 1.54555 6.61569 1.45707C6.77299 1.29932 6.98087 1.20208 7.20278 1.18246C7.32369 1.17043 7.44579 1.1841 7.56104 1.22259C7.6763 1.26107 7.78211 1.3235 7.87153 1.40577C7.96096 1.48804 8.03197 1.58829 8.07991 1.69995C8.12785 1.8116 8.15164 1.93213 8.1497 2.05363C8.15879 2.17393 8.14306 2.29482 8.10348 2.40879C8.06391 2.52277 8.00134 2.62739 7.91965 2.71618C7.83797 2.80497 7.73891 2.87603 7.62862 2.92494C7.51834 2.97386 7.39918 2.9996 7.27853 3.00055L7.22172 2.99108Z" fill="white"/>
</g>
<defs>
<clipPath id="clip0_17_9911">
<rect width="57.9517" height="12.31" fill="white" transform="translate(0.934082 0.689941)"/>
</clipPath>
</defs>
</svg>
