<svg width="37" height="13" viewBox="0 0 37 13" fill="none" xmlns="http://www.w3.org/2000/svg">
<g clip-path="url(#clip0_17_9897)">
<path d="M18.9838 13.0002C18.7365 13.0001 18.4895 12.9803 18.2453 12.9411C17.6644 12.8683 17.1114 12.6495 16.6379 12.3051C16.1644 11.9608 15.7859 11.5021 15.5376 10.9719C15.1339 10.1741 14.9309 9.28991 14.9464 8.39595C14.9618 7.502 15.1952 6.62532 15.6263 5.84201C15.8944 5.32088 16.303 4.88517 16.8059 4.58414C17.3087 4.28312 17.8858 4.1288 18.4718 4.13863C18.7703 4.14102 19.0676 4.17736 19.3579 4.24693C19.8131 4.35802 20.2353 4.57577 20.5897 4.88223C20.9441 5.18868 21.2205 5.57504 21.3961 6.00939C21.7512 6.89348 21.9092 7.84443 21.8589 8.79586V8.86478H16.473C16.4629 9.54037 16.6662 10.2019 17.0539 10.7552C17.2843 11.0598 17.5818 11.3071 17.9234 11.4779C18.2649 11.6487 18.6413 11.7383 19.0232 11.7399H19.1413C19.7865 11.7361 20.4214 11.5774 20.9924 11.2771L21.2189 11.1589L21.7013 12.1435H21.6521C21.2938 12.3783 20.9021 12.5575 20.4903 12.6752C20.0069 12.8572 19.4992 12.9667 18.9838 13.0002ZM20.3524 7.71278C20.3681 7.11551 20.1922 6.52891 19.8503 6.03893C19.6936 5.8164 19.4857 5.63489 19.244 5.50977C19.0023 5.38465 18.7341 5.31961 18.4619 5.32016C18.0847 5.32158 17.7183 5.44603 17.4183 5.67463C16.9565 6.01865 16.6432 6.52564 16.5419 7.09247C16.5419 7.24016 16.5419 7.38786 16.473 7.54539C16.4041 7.70293 16.473 7.63401 16.473 7.68324L20.3524 7.71278Z" fill="white"/>
<path d="M2.02879 12.8129V5.53655H0.926025V4.33532H2.02879V3.59686C2.00395 3.17384 2.00395 2.74973 2.02879 2.32671C2.04486 2.0251 2.12136 1.7298 2.25375 1.45833C2.38614 1.18686 2.57172 0.944753 2.79948 0.746384C3.02724 0.548015 3.29253 0.397426 3.5796 0.303557C3.86668 0.209687 4.16969 0.17445 4.47064 0.199937H4.78572C5.02184 0.223474 5.25565 0.266283 5.4848 0.327937L5.8491 0.416552V0.436245L5.55372 1.63748H5.49464L5.27803 1.5784C5.14291 1.53733 5.00457 1.50768 4.86449 1.48978H4.59864C4.47118 1.47318 4.3421 1.47318 4.21464 1.48978C4.03316 1.53171 3.86926 1.62916 3.74573 1.76857C3.6222 1.90798 3.54519 2.08242 3.52541 2.26763C3.48433 2.50514 3.46129 2.74541 3.45649 2.9864C3.45649 3.30148 3.45649 3.61655 3.45649 3.97101V4.33532H5.60295L5.15987 5.53655H3.45649V12.8129H2.02879Z" fill="white"/>
<path d="M10.3586 12.8131V4.34544H11.5697L11.7273 5.33006L11.7568 5.25129C11.8651 5.13313 11.9734 5.01498 12.0916 4.90667C12.5938 4.41454 13.269 4.13883 13.9722 4.13867H14.2183C14.3849 4.15746 14.5496 4.1904 14.7106 4.23713L14.9371 4.29621H15.0159L14.494 5.64513H14.4251C14.2106 5.53895 13.9752 5.48178 13.7359 5.47775C13.3757 5.50011 13.0315 5.63435 12.7513 5.86175L12.1113 6.3836L11.7568 6.61006V12.8131H10.3586Z" fill="white"/>
<path d="M8.18258 4.34521H6.78442V12.8129H8.18258V4.34521Z" fill="white"/>
<path d="M7.4638 2.59254C7.34449 2.59516 7.22586 2.57392 7.11487 2.53007C7.00388 2.48622 6.90277 2.42064 6.81747 2.33717C6.73217 2.25371 6.6644 2.15405 6.61815 2.04403C6.57189 1.93402 6.54808 1.81588 6.54811 1.69654C6.54736 1.56696 6.5722 1.4385 6.6212 1.31854C6.6702 1.19858 6.7424 1.08946 6.83365 0.997462C6.99721 0.833437 7.21337 0.732331 7.44411 0.711924C7.56984 0.699412 7.69679 0.713632 7.81663 0.75365C7.93648 0.793669 8.0465 0.858581 8.13948 0.944125C8.23247 1.02967 8.30631 1.13391 8.35616 1.25001C8.40601 1.36611 8.43074 1.49144 8.42873 1.61777C8.43817 1.74286 8.42182 1.86856 8.38067 1.98707C8.33952 2.10558 8.27446 2.21437 8.18952 2.3067C8.10458 2.39902 8.00158 2.47291 7.88691 2.52377C7.77223 2.57463 7.64833 2.60139 7.52288 2.60239L7.4638 2.59254Z" fill="white"/>
<path d="M36.894 4.38477L36.6281 5.06415C35.9192 6.79707 35.2169 8.53 34.5211 10.2629L33.5364 12.7737C33.5279 12.7912 33.5155 12.8064 33.5001 12.8184C33.4847 12.8303 33.4669 12.8386 33.4478 12.8426H32.2663L28.7906 4.39461L28.3968 5.64507H26.1321V12.8426H24.5568V5.65492H22.1248V4.38477H30.4644C30.4598 4.41412 30.4598 4.44402 30.4644 4.47338L31.1241 6.18661L32.7291 10.45L32.8177 10.6863V10.6075C32.9654 10.1743 33.1131 9.74107 33.2804 9.31769L35.1709 4.39461L36.894 4.38477Z" fill="white"/>
</g>
<defs>
<clipPath id="clip0_17_9897">
<rect width="35.968" height="12.8" fill="white" transform="translate(0.926025 0.200195)"/>
</clipPath>
</defs>
</svg>
