<svg width="24" height="25" viewBox="0 0 24 25" fill="#fff" xmlns="http://www.w3.org/2000/svg">
<g clip-path="url(#clip0_17_9955)">
<path d="M12 2.7391C15.216 2.7391 15.6 2.7391 16.848 2.7871C18 2.8351 18.672 3.0271 19.056 3.2191C19.632 3.4591 20.016 3.6991 20.448 4.1311C20.88 4.5631 21.12 4.9471 21.36 5.5231C21.504 5.9551 21.696 6.5791 21.792 7.7311C21.84 8.9791 21.84 9.3631 21.84 12.5791C21.84 15.7951 21.84 16.1791 21.792 17.4271C21.744 18.5791 21.552 19.2511 21.36 19.6351C21.12 20.2111 20.88 20.5951 20.448 21.0271C20.016 21.4591 19.632 21.6991 19.056 21.9391C18.624 22.0831 18 22.2751 16.848 22.3711C15.6 22.4191 15.216 22.4191 12 22.4191C8.784 22.4191 8.4 22.4191 7.152 22.3711C6 22.3231 5.328 22.1311 4.944 21.9391C4.368 21.6991 3.984 21.4591 3.552 21.0271C3.12 20.5951 2.88 20.2111 2.64 19.6351C2.496 19.2031 2.304 18.5791 2.208 17.4271C2.16 16.1791 2.16 15.7951 2.16 12.5791C2.16 9.3631 2.16 8.9791 2.208 7.7311C2.256 6.5791 2.448 5.9071 2.64 5.5231C2.88 4.9471 3.12 4.5631 3.552 4.1311C3.984 3.6991 4.368 3.4591 4.944 3.2191C5.376 3.0751 6 2.8831 7.152 2.7871C8.4 2.7391 8.784 2.7391 12 2.7391ZM12 0.579102C8.736 0.579102 8.352 0.579102 7.056 0.675102C5.76 0.723102 4.896 0.915102 4.128 1.2031C3.36 1.5391 2.688 1.9231 2.016 2.5951C1.344 3.2671 0.96 3.9391 0.624 4.7071C0.336 5.4751 0.144 6.3391 0.048 7.6351C0 8.9311 0 9.3151 0 12.5791C0 15.8431 0 16.2271 0.096 17.5231C0.144 18.8191 0.336 19.6831 0.672 20.4511C0.96 21.2191 1.392 21.8911 2.064 22.5631C2.688 23.2351 3.36 23.6191 4.128 23.9551C4.896 24.2431 5.76 24.4351 7.056 24.5311C8.352 24.5791 8.736 24.5791 12 24.5791C15.264 24.5791 15.648 24.5791 16.944 24.4831C18.24 24.4351 19.104 24.2431 19.872 23.9071C20.64 23.6191 21.312 23.1871 21.984 22.5151C22.656 21.8431 23.04 21.1711 23.376 20.4031C23.664 19.6351 23.856 18.7711 23.952 17.4751C24 16.2271 24 15.8431 24 12.5791C24 9.3151 24 8.9311 23.904 7.6351C23.856 6.3391 23.664 5.4751 23.328 4.7071C23.04 3.9391 22.608 3.2671 21.936 2.5951C21.312 1.9231 20.64 1.5391 19.872 1.2031C19.104 0.915102 18.24 0.723102 16.944 0.627102C15.648 0.579102 15.264 0.579102 12 0.579102Z" fill="white"/>
<path d="M12 6.43506C8.59196 6.43506 5.85596 9.17106 5.85596 12.5791C5.85596 15.9871 8.59196 18.7231 12 18.7231C15.408 18.7231 18.144 15.9871 18.144 12.5791C18.144 9.17106 15.408 6.43506 12 6.43506ZM12 16.5631C9.79196 16.5631 8.01596 14.7871 8.01596 12.5791C8.01596 10.3711 9.79196 8.59506 12 8.59506C14.208 8.59506 15.984 10.3711 15.984 12.5791C15.984 14.7871 14.208 16.5631 12 16.5631Z" fill="white"/>
<path d="M18.384 7.63488C19.1793 7.63488 19.824 6.99017 19.824 6.19488C19.824 5.39959 19.1793 4.75488 18.384 4.75488C17.5887 4.75488 16.944 5.39959 16.944 6.19488C16.944 6.99017 17.5887 7.63488 18.384 7.63488Z" fill="white"/>
</g>
<defs>
<clipPath id="clip0_17_9955">
<rect width="24" height="24" fill="white" transform="translate(0 0.579102)"/>
</clipPath>
</defs>
</svg>
