<svg width="43" height="13" viewBox="0 0 43 13" fill="none" xmlns="http://www.w3.org/2000/svg">
<g clip-path="url(#clip0_17_9841)">
<g clip-path="url(#clip1_17_9841)">
<path d="M16.3362 2.6392C16.3563 2.47213 16.4369 2.3182 16.5628 2.20653C16.6887 2.09487 16.8511 2.0332 17.0194 2.0332C17.1877 2.0332 17.3501 2.09487 17.476 2.20653C17.6019 2.3182 17.6825 2.47213 17.7026 2.6392C17.7142 2.7358 17.7052 2.83376 17.6761 2.92662C17.6471 3.01948 17.5987 3.10513 17.5342 3.17791C17.4696 3.2507 17.3903 3.30896 17.3016 3.34886C17.2129 3.38877 17.1167 3.4094 17.0194 3.4094C16.9221 3.4094 16.8259 3.38877 16.7372 3.34886C16.6485 3.30896 16.5692 3.2507 16.5046 3.17791C16.4401 3.10513 16.3917 3.01948 16.3626 2.92662C16.3336 2.83376 16.3246 2.7358 16.3362 2.6392ZM16.5623 5.00822H17.4765V12.5675H16.5623V5.00822Z" fill="white"/>
<path d="M23.5909 2.44263C24.0178 2.41445 24.4459 2.4768 24.8471 2.62559C25.2483 2.77438 25.6135 3.00625 25.9189 3.30601C26.2242 3.60578 26.4627 3.96667 26.6189 4.36505C26.775 4.76343 26.8453 5.1903 26.8249 5.61771C26.8356 6.04121 26.7576 6.46226 26.5959 6.85382C26.4341 7.24537 26.1923 7.59877 25.8859 7.8913C25.5795 8.18384 25.2152 8.40904 24.8166 8.55244C24.418 8.69584 23.9938 8.75427 23.5712 8.72397H20.9466V12.538H19.9636V2.44263H23.5909ZM20.9466 7.89826H23.355C23.6746 7.94178 23.9999 7.91455 24.3078 7.81848C24.6158 7.7224 24.8989 7.55984 25.1371 7.34229C25.3752 7.12473 25.5627 6.8575 25.6862 6.55949C25.8097 6.26148 25.8662 5.93997 25.8518 5.61771C25.8723 5.29223 25.8202 4.96627 25.6994 4.66337C25.5785 4.36048 25.3919 4.0882 25.153 3.86622C24.9141 3.64424 24.6288 3.47811 24.3179 3.37981C24.007 3.28151 23.6781 3.25351 23.355 3.29784H20.9466V7.89826Z" fill="white"/>
<path d="M28.2109 10.4833C28.2109 9.15621 29.1939 8.38947 30.9437 8.27151L33.352 8.12406V7.38682C33.352 6.30552 32.7032 5.70589 31.4745 5.70589C30.4325 5.70589 29.6854 6.14824 29.5085 6.87566H28.5255C28.7024 5.6764 29.8722 4.90967 31.4745 4.90967C33.2439 4.90967 34.2465 5.89266 34.2465 7.41631V12.5967H33.352V11.2697H33.2734C33.0282 11.7131 32.663 12.0783 32.2196 12.3235C31.7762 12.5687 31.2726 12.6838 30.7667 12.6557C30.4539 12.694 30.1365 12.667 29.8346 12.5765C29.5327 12.4859 29.2528 12.3338 29.0127 12.1297C28.7725 11.9255 28.5773 11.6738 28.4393 11.3905C28.3013 11.1071 28.2235 10.7982 28.2109 10.4833ZM33.352 9.75584V8.87114L31.1108 9.02842C29.8329 9.12672 29.2136 9.59856 29.2136 10.4636C29.2136 11.3286 29.9508 11.8791 30.9633 11.8791C31.2604 11.9004 31.5588 11.862 31.8408 11.7662C32.1228 11.6704 32.3828 11.5191 32.6054 11.3212C32.828 11.1233 33.0088 10.8829 33.137 10.614C33.2652 10.3452 33.3383 10.0534 33.352 9.75584Z" fill="white"/>
<path d="M36.1536 8.7925C36.1536 6.45297 37.4413 4.86052 39.3581 4.86052C39.896 4.84566 40.4259 4.99221 40.8797 5.2813C41.3335 5.57038 41.6903 5.98874 41.9041 6.48246H41.9827V2H42.9067V12.5672H42.0221V11.0632H41.9336C41.708 11.5522 41.3435 11.9639 40.8855 12.2471C40.4276 12.5303 39.8963 12.6724 39.3581 12.6557C37.4216 12.6557 36.1536 11.1419 36.1536 8.7925ZM37.1366 8.7925C37.1366 10.6799 38.1196 11.8693 39.5941 11.8693C41.0685 11.8693 42.0024 10.6897 42.0024 8.78267C42.0024 6.87566 41.0194 5.71572 39.5547 5.71572C38.0901 5.71572 37.0972 6.91498 37.0972 8.78267L37.1366 8.7925Z" fill="white"/>
<path d="M6.36871 1.91167C6.59277 1.61007 6.87898 1.36009 7.20798 1.17863C7.53697 0.997174 7.9011 0.888468 8.27573 0.859863C8.31272 1.21326 8.2759 1.57049 8.16761 1.90892C8.05931 2.24735 7.8819 2.55959 7.64661 2.82586C7.44004 3.10821 7.16416 3.33254 6.84561 3.47718C6.52706 3.62182 6.1766 3.68188 5.82807 3.65157C5.78868 3.34126 5.81469 3.02614 5.90442 2.72648C5.99414 2.42682 6.14561 2.14927 6.34905 1.91167H6.36871ZM5.94603 4.33967C6.64719 4.09042 7.37173 3.91258 8.10862 3.80885C8.57284 3.7861 9.03517 3.88255 9.45157 4.08903C9.86797 4.29551 10.2246 4.60514 10.4875 4.98845C10.0849 5.22201 9.75111 5.5577 9.51983 5.96158C9.28854 6.36547 9.16796 6.82324 9.17025 7.28866C9.17182 7.81428 9.32715 8.32796 9.6171 8.76638C9.90705 9.2048 10.319 9.5488 10.802 9.75598C10.802 9.75598 9.66175 12.9802 8.11845 12.9802C7.41069 12.9802 6.86021 12.4985 6.15245 12.4985C5.4447 12.4985 4.63864 12.9999 4.18646 12.9999C2.69231 12.9999 0.913086 9.94275 0.913086 7.49509C0.913086 5.04743 2.41707 3.80885 3.86207 3.80885C4.7566 3.80885 5.46436 4.33967 5.94603 4.33967Z" fill="white"/>
</g>
</g>
<defs>
<clipPath id="clip0_17_9841">
<rect width="42" height="12.14" fill="white" transform="translate(0.909912 0.859863)"/>
</clipPath>
<clipPath id="clip1_17_9841">
<rect width="41.9936" height="12.14" fill="white" transform="translate(0.913086 0.859863)"/>
</clipPath>
</defs>
</svg>
