<svg width="59" height="12" viewBox="0 0 59 12" fill="none" xmlns="http://www.w3.org/2000/svg">
<g clip-path="url(#clip0_17_9827)">
<g clip-path="url(#clip1_17_9827)">
<path d="M15.877 1.92588C15.877 1.79394 15.9161 1.66497 15.9894 1.55527C16.0627 1.44556 16.1669 1.36006 16.2888 1.30957C16.4107 1.25908 16.5448 1.24587 16.6742 1.27161C16.8036 1.29735 16.9225 1.36088 17.0158 1.45418C17.109 1.54747 17.1726 1.66634 17.1983 1.79574C17.2241 1.92514 17.2109 2.05927 17.1604 2.18117C17.1099 2.30306 17.0244 2.40725 16.9147 2.48055C16.805 2.55385 16.676 2.59298 16.544 2.59298C16.3671 2.59298 16.1974 2.52269 16.0723 2.39759C15.9472 2.27248 15.877 2.10281 15.877 1.92588ZM16.0993 4.13986H16.9984V11.5746H16.0993V4.13986Z" fill="white"/>
<path d="M23.0119 1.61679C23.4323 1.5892 23.8537 1.65053 24.2488 1.79678C24.6438 1.94304 25.0036 2.17092 25.3046 2.46558C25.6057 2.76024 25.8412 3.11505 25.9959 3.50687C26.1506 3.89869 26.2209 4.31872 26.2024 4.73955C26.2114 5.15567 26.1336 5.56911 25.9741 5.95352C25.8145 6.33793 25.5766 6.6849 25.2756 6.9723C24.9745 7.25971 24.6169 7.48127 24.2255 7.62285C23.8341 7.76443 23.4175 7.82294 23.0023 7.79465H20.4209V11.5458H19.4541V1.61679H23.0119ZM20.4209 6.98253H22.7896C23.1036 7.02361 23.4229 6.9956 23.725 6.90046C24.0271 6.80533 24.3048 6.64537 24.5387 6.43175C24.7726 6.21814 24.9569 5.95603 25.079 5.66375C25.201 5.37146 25.2578 5.05605 25.2452 4.73955C25.2636 4.41989 25.2112 4.10012 25.0918 3.80304C24.9723 3.50597 24.7888 3.23893 24.5542 3.02099C24.3196 2.80305 24.0398 2.63957 23.7348 2.54224C23.4298 2.4449 23.107 2.41611 22.7896 2.4579H20.4209V6.98253Z" fill="white"/>
<path d="M27.991 1.18164H28.9578V5.48391H29.0448C29.2515 5.01896 29.5961 4.6287 30.0318 4.36589C30.4675 4.10307 30.9734 3.98037 31.4811 4.01437C31.8385 3.99211 32.1965 4.0486 32.5296 4.17985C32.8628 4.3111 33.1631 4.51391 33.4093 4.77394C33.6555 5.03398 33.8416 5.3449 33.9545 5.68475C34.0674 6.0246 34.1042 6.38509 34.0625 6.74075V11.5748H33.1634V6.97278C33.1634 5.57092 32.4866 4.83615 31.2298 4.83615C30.9234 4.82182 30.6176 4.87241 30.3322 4.98461C30.0468 5.09681 29.7883 5.26807 29.5738 5.48718C29.3593 5.70628 29.1935 5.96827 29.0873 6.25596C28.9811 6.54365 28.937 6.85053 28.9578 7.15647V11.5748H27.991V1.18164Z" fill="white"/>
<path d="M35.8994 7.85256C35.8994 5.48389 37.1949 3.98535 39.2735 3.98535C41.3522 3.98535 42.6574 5.45489 42.6574 7.85256C42.6574 10.2502 41.3522 11.7198 39.2735 11.7198C37.1949 11.7198 35.8994 10.2309 35.8994 7.85256ZM41.7002 7.85256C41.7002 5.9673 40.7334 4.83614 39.2542 4.83614C37.775 4.83614 36.8082 5.9673 36.8082 7.85256C36.8082 9.73782 37.717 10.8786 39.2542 10.8786C40.7914 10.8786 41.7196 9.72815 41.7196 7.85256H41.7002Z" fill="white"/>
<path d="M44.5619 4.14011H45.3933V5.48396H45.4803C45.7463 4.9409 46.1906 4.50561 46.739 4.25092C47.2875 3.99623 47.9067 3.93757 48.4932 4.08476C49.0797 4.23195 49.5979 4.57606 49.961 5.05953C50.3242 5.54301 50.5104 6.13652 50.4884 6.7408V11.5748H49.5796V6.97284C49.5796 5.56131 48.9318 4.83621 47.646 4.83621C47.3432 4.82564 47.0416 4.87929 46.7611 4.99361C46.4806 5.10794 46.2274 5.28036 46.0183 5.49954C45.8092 5.71871 45.6488 5.97968 45.5477 6.26527C45.4467 6.55086 45.4072 6.8546 45.432 7.15653V11.5748H44.5232L44.5619 4.14011Z" fill="white"/>
<path d="M58.7835 9.72806C58.5575 10.3453 58.133 10.87 57.5766 11.22C57.0202 11.5699 56.3633 11.7253 55.7091 11.6617C53.6691 11.6617 52.3833 10.1728 52.3833 7.79445C52.3833 5.41612 53.6788 3.92725 55.6994 3.92725C57.72 3.92725 58.9285 5.42579 58.9285 7.69777V8.09416H53.3114C53.3598 9.76673 54.2782 10.8495 55.7284 10.8495C56.156 10.8983 56.5883 10.8175 56.9693 10.6175C57.3503 10.4175 57.6624 10.1076 57.8651 9.72806H58.7835ZM53.3211 7.34972H57.9617C57.997 7.0321 57.9651 6.71062 57.8681 6.40611C57.7712 6.1016 57.6113 5.82085 57.399 5.58205C57.1866 5.34325 56.9264 5.15173 56.6353 5.01989C56.3442 4.88804 56.0287 4.81882 55.7091 4.8167C55.3837 4.81887 55.0622 4.88698 54.7639 5.0169C54.4656 5.14683 54.1967 5.33587 53.9735 5.57262C53.7503 5.80937 53.5774 6.08891 53.4653 6.39435C53.3532 6.69979 53.3041 7.0248 53.3211 7.34972Z" fill="white"/>
<path d="M6.28616 1.09454C6.50653 0.797904 6.78802 0.552043 7.11159 0.373575C7.43517 0.195107 7.7933 0.0881924 8.16175 0.0600586C8.19814 0.407636 8.16193 0.758983 8.05542 1.09183C7.9489 1.42468 7.77441 1.73178 7.543 1.99366C7.33984 2.27137 7.06851 2.492 6.7552 2.63426C6.4419 2.77651 6.09721 2.83559 5.75442 2.80578C5.71568 2.50057 5.74126 2.19065 5.82951 1.89593C5.91776 1.60121 6.06673 1.32822 6.26682 1.09454H6.28616ZM5.87043 3.48254C6.56005 3.23739 7.27265 3.06248 7.9974 2.96046C8.45398 2.93808 8.90869 3.03295 9.31823 3.23603C9.72777 3.43911 10.0785 3.74364 10.3371 4.12063C9.94112 4.35035 9.61283 4.6805 9.38536 5.07773C9.15789 5.47496 9.03929 5.9252 9.04154 6.38294C9.04309 6.89991 9.19586 7.40512 9.48103 7.83632C9.76621 8.26752 10.1713 8.60585 10.6464 8.80961C10.6464 8.80961 9.52494 11.9807 8.00707 11.9807C7.31097 11.9807 6.76956 11.507 6.07346 11.507C5.37737 11.507 4.58459 12.0001 4.13986 12.0001C2.67032 12.0001 0.92041 8.99331 0.92041 6.58597C0.92041 4.17863 2.39962 2.96046 3.82081 2.96046C4.7006 2.96046 5.3967 3.48254 5.87043 3.48254Z" fill="white"/>
</g>
</g>
<defs>
<clipPath id="clip0_17_9827">
<rect width="58" height="11.94" fill="white" transform="translate(0.909912 0.0600586)"/>
</clipPath>
<clipPath id="clip1_17_9827">
<rect width="57.9791" height="11.94" fill="white" transform="translate(0.92041 0.0600586)"/>
</clipPath>
</defs>
</svg>
