<svg width="66" height="38" viewBox="0 0 66 38" fill="none" xmlns="http://www.w3.org/2000/svg">
<g clip-path="url(#clip0_17_9439)">
<path fill-rule="evenodd" clip-rule="evenodd" d="M9.93616 30.8784H55.4711V3.55737H9.93616V30.8784Z" fill="#FEFEFE"/>
<path fill-rule="evenodd" clip-rule="evenodd" d="M8.79777 32.0167H56.6095V2.41899H8.79777V32.0167ZM32.6861 33.6836C25.0934 33.6836 17.4998 33.6248 9.90708 33.7223C7.83126 33.7495 7.07988 33.1063 7.09585 31.028C7.17125 21.8818 7.16771 12.7348 7.09053 3.5886C7.0719 1.42771 7.8694 0.701854 10.0472 0.711521C25.1528 0.775671 40.2584 0.771277 55.3648 0.715915C57.5223 0.708006 58.3251 1.42332 58.3038 3.60793C58.2133 12.675 58.1911 21.7439 58.3162 30.8092C58.349 33.1915 57.4477 33.7531 55.2238 33.7232C47.7136 33.6204 40.1989 33.6836 32.6861 33.6836Z" fill="white"/>
<path fill-rule="evenodd" clip-rule="evenodd" d="M2.62596 37.6731C1.83641 37.6709 1.04866 37.1337 0.26001 36.846C0.315637 36.564 0.372161 36.283 0.427789 36.001H64.9419C65.0101 36.3066 65.0792 36.6123 65.1474 36.9179C64.3282 37.182 63.5091 37.6753 62.6899 37.6765C59.6349 37.6832 56.579 37.6888 53.5249 37.6933C36.5586 37.718 19.5923 37.7136 2.62596 37.6731Z" fill="white"/>
</g>
<defs>
<clipPath id="clip0_17_9439">
<rect width="65.67" height="36.9972" fill="white" transform="translate(0.26001 0.711426)"/>
</clipPath>
</defs>
</svg>
