<svg width="143" height="31" viewBox="0 0 143 31" fill="none" xmlns="http://www.w3.org/2000/svg">
<path d="M0.722 0.599998H7.316L10.256 21.642H10.34L13.28 0.599998H19.874V30H15.506V7.74H15.422L12.062 30H8.198L4.838 7.74H4.754V30H0.722V0.599998ZM26.0516 0.599998H32.3096L37.0976 30H32.4776L31.6376 24.162V24.246H26.3876L25.5476 30H21.2636L26.0516 0.599998ZM31.0916 20.256L29.0336 5.724H28.9496L26.9336 20.256H31.0916ZM38.499 0.599998H45.345C47.725 0.599998 49.461 1.16 50.553 2.28C51.645 3.372 52.191 5.066 52.191 7.362V9.168C52.191 12.22 51.183 14.152 49.167 14.964V15.048C50.287 15.384 51.071 16.07 51.519 17.106C51.995 18.142 52.233 19.528 52.233 21.264V26.43C52.233 27.27 52.261 27.956 52.317 28.488C52.373 28.992 52.513 29.496 52.737 30H48.033C47.865 29.524 47.753 29.076 47.697 28.656C47.641 28.236 47.613 27.48 47.613 26.388V21.012C47.613 19.668 47.389 18.73 46.941 18.198C46.521 17.666 45.779 17.4 44.715 17.4H43.119V30H38.499V0.599998ZM44.799 13.2C45.723 13.2 46.409 12.962 46.857 12.486C47.333 12.01 47.571 11.212 47.571 10.092V7.824C47.571 6.76 47.375 5.99 46.983 5.514C46.619 5.038 46.031 4.8 45.219 4.8H43.119V13.2H44.799ZM58.1842 17.484L52.5982 0.599998H57.5122L60.6622 11.394H60.7462L63.8962 0.599998H68.3902L62.8042 17.484V30H58.1842V17.484ZM69.6315 0.599998H76.2255L79.1655 21.642H79.2495L82.1895 0.599998H88.7835V30H84.4155V7.74H84.3315L80.9715 30H77.1075L73.7475 7.74H73.6635V30H69.6315V0.599998ZM98.0691 30.42C95.8011 30.42 94.0651 29.776 92.8611 28.488C91.6571 27.2 91.0551 25.38 91.0551 23.028V7.572C91.0551 5.22 91.6571 3.4 92.8611 2.112C94.0651 0.823998 95.8011 0.179998 98.0691 0.179998C100.337 0.179998 102.073 0.823998 103.277 2.112C104.481 3.4 105.083 5.22 105.083 7.572V23.028C105.083 25.38 104.481 27.2 103.277 28.488C102.073 29.776 100.337 30.42 98.0691 30.42ZM98.0691 26.22C99.6651 26.22 100.463 25.254 100.463 23.322V7.278C100.463 5.346 99.6651 4.38 98.0691 4.38C96.4731 4.38 95.6751 5.346 95.6751 7.278V23.322C95.6751 25.254 96.4731 26.22 98.0691 26.22ZM106.068 0.599998H110.73L113.754 23.406H113.838L116.862 0.599998H121.104L116.652 30H110.52L106.068 0.599998ZM122.483 0.599998H127.103V30H122.483V0.599998ZM129.723 0.599998H142.323V4.8H134.343V12.57H140.685V16.77H134.343V25.8H142.323V30H129.723V0.599998Z" fill="#E50914"/>
</svg>