<svg width="40" height="38" viewBox="0 0 40 38" fill="none" xmlns="http://www.w3.org/2000/svg">
<g clip-path="url(#clip0_17_9425)">
<path fill-rule="evenodd" clip-rule="evenodd" d="M3.14612 34.1845H23.1119V3.64868H3.14612V34.1845Z" fill="white"/>
<path fill-rule="evenodd" clip-rule="evenodd" d="M1.88533 35.4468H24.2532V2.41524H1.88533V35.4468ZM0.212313 3.16483C0.162852 1.44541 0.890627 0.748518 2.67591 0.796498C5.19683 0.864929 20.9543 0.85549 23.4752 0.798858C25.0956 0.76189 25.9365 1.37855 25.9349 2.96661C25.9294 8.87524 25.9294 29.0756 25.9333 34.9835C25.9341 36.4276 25.1851 37.1221 23.688 37.1198C20.9912 37.1166 5.06258 37.1253 2.3658 37.1166C0.860009 37.1111 0.192685 36.4032 0.219378 34.9316C0.273549 31.9371 0.23508 14.6486 0.23508 11.6526C0.234295 8.82333 0.293177 5.9925 0.212313 3.16483Z" fill="white"/>
<path fill-rule="evenodd" clip-rule="evenodd" d="M30.4082 34.7717H36.8677V22.4399H30.4082V34.7717Z" fill="#FEFEFE"/>
<path fill-rule="evenodd" clip-rule="evenodd" d="M29.2337 35.9462H38.0421V21.2655H29.2337V35.9462ZM39.215 35.2878C39.2598 36.6172 38.6096 37.1564 37.0153 37.1188C34.7638 37.0661 32.5078 37.0741 30.2554 37.1172C28.8085 37.146 28.0583 36.6691 28.0592 35.442C28.0636 30.8757 28.0636 26.3094 28.0601 21.7422C28.0592 20.627 28.7287 20.0902 30.0659 20.0918C32.4745 20.095 34.8831 20.087 37.2917 20.0942C38.6368 20.099 39.2335 20.6454 39.2089 21.783C39.1606 24.0981 39.1948 26.4132 39.1948 28.7283C39.1957 30.9156 39.1431 33.1029 39.215 35.2878Z" fill="white"/>
</g>
<defs>
<clipPath id="clip0_17_9425">
<rect width="39.77" height="36.9953" fill="white" transform="translate(0.209961 0.712402)"/>
</clipPath>
</defs>
</svg>
