<svg width="97" height="100" viewBox="0 0 97 100" fill="none" xmlns="http://www.w3.org/2000/svg">
<g clip-path="url(#clip0_1_182)">
<path d="M48.8101 95.213C75.3201 95.213 96.8101 91.338 96.8101 86.557C96.8101 81.777 75.3201 77.902 48.8101 77.902C22.3001 77.902 0.810059 81.777 0.810059 86.557C0.810059 91.337 22.3001 95.213 48.8101 95.213Z" fill="url(#paint0_radial_1_182)"/>
<path d="M48.8101 77.115C75.3201 77.115 96.8101 60.028 96.8101 38.951C96.8101 17.873 75.3201 0.786987 48.8101 0.786987C22.3001 0.786987 0.810059 17.874 0.810059 38.95C0.810059 60.026 22.3001 77.115 48.8101 77.115Z" fill="url(#paint1_radial_1_182)"/>
<path fill-rule="evenodd" clip-rule="evenodd" d="M76.1861 75.624C76.3619 75.1797 76.3988 74.6926 76.2917 74.2269C76.1847 73.7612 75.9388 73.339 75.5866 73.0161C75.2344 72.6932 74.7925 72.4848 74.3193 72.4185C73.8461 72.3522 73.364 72.431 72.9366 72.6446C72.5092 72.8583 72.1567 73.1966 71.9257 73.6149C71.6948 74.0331 71.5962 74.5117 71.6431 74.9872C71.69 75.4627 71.8801 75.9128 72.1883 76.2779C72.4965 76.643 72.9082 76.906 73.3691 77.032C73.3071 77.189 73.2621 77.352 73.2351 77.518C72.5116 77.9344 71.9829 78.6209 71.7652 79.4268C71.5475 80.2327 71.6586 81.092 72.0741 81.816C72.2799 82.1745 72.5543 82.489 72.8817 82.7414C73.209 82.9938 73.5829 83.1792 73.982 83.287C74.3811 83.3949 74.7975 83.423 75.2074 83.3698C75.6173 83.3166 76.0128 83.1831 76.3711 82.977C76.4326 83.5186 76.6337 84.0349 76.9546 84.4754C77.2755 84.9159 77.7053 85.2656 78.2019 85.4902C78.6985 85.7147 79.2449 85.8065 79.7877 85.7565C80.3304 85.7066 80.8509 85.5165 81.2981 85.205C81.449 85.5229 81.6691 85.803 81.9423 86.0248C82.2155 86.2467 82.5348 86.4046 82.8769 86.4871C83.2189 86.5695 83.5751 86.5745 83.9194 86.5015C84.2636 86.4285 84.5872 86.2795 84.8664 86.0654C85.1456 85.8512 85.3734 85.5773 85.533 85.2637C85.6927 84.9502 85.7803 84.6048 85.7892 84.2531C85.7982 83.9013 85.7284 83.552 85.585 83.2307C85.4415 82.9093 85.228 82.6242 84.9601 82.396C85.507 81.7978 85.8021 81.0116 85.7839 80.2013C85.7657 79.3909 85.4356 78.6188 84.8624 78.0458C84.2892 77.4727 83.517 77.1428 82.7067 77.1248C81.8963 77.1067 81.1102 77.402 80.5121 77.949C80.1935 77.5716 79.7642 77.3039 79.285 77.1838C78.8059 77.0638 78.3011 77.0974 77.8421 77.28C77.7336 76.884 77.5238 76.523 77.2335 76.2327C76.9431 75.9423 76.5822 75.7325 76.1861 75.624ZM25.2031 77.114C25.2031 77.424 25.1591 77.733 25.0691 78.029C25.6718 78.1796 26.2351 78.4582 26.7206 78.8459C27.206 79.2335 27.6024 79.7211 27.8826 80.2756C28.1628 80.8301 28.3204 81.4383 28.3447 82.0591C28.3689 82.6799 28.2592 83.2986 28.023 83.8732C27.7869 84.4479 27.4298 84.9649 26.976 85.3892C26.5222 85.8135 25.9824 86.1352 25.3933 86.3323C24.8041 86.5294 24.1794 86.5974 23.5617 86.5316C22.9439 86.4658 22.3475 86.2678 21.8131 85.951C21.3246 86.3441 20.7162 86.558 20.0891 86.557C19.6121 86.558 19.1431 86.434 18.7291 86.199C18.5518 86.5885 18.2523 86.9096 17.876 87.1134C17.4997 87.3172 17.0671 87.3926 16.644 87.3283C16.2209 87.2639 15.8304 87.0632 15.5317 86.7567C15.233 86.4502 15.0425 86.0546 14.9891 85.63C14.6333 85.7583 14.2519 85.7991 13.8771 85.7492C13.5022 85.6992 13.1448 85.5599 12.835 85.3429C12.5253 85.126 12.2722 84.8378 12.0971 84.5025C11.922 84.1673 11.83 83.7949 11.8289 83.4168C11.8278 83.0386 11.9176 82.6657 12.0907 82.3294C12.2638 81.9932 12.5152 81.7035 12.8237 81.4847C13.1322 81.266 13.4888 81.1246 13.8634 81.0724C14.238 81.0202 14.6196 81.0589 14.9761 81.185C14.9543 80.6815 15.0538 80.18 15.2662 79.7229C15.4785 79.2658 15.7975 78.8663 16.1963 78.5581C16.5952 78.2499 17.0622 78.042 17.5581 77.9519C18.054 77.8617 18.5643 77.8919 19.0461 78.04C18.913 77.6071 18.8749 77.1505 18.9344 76.7015C18.9939 76.2525 19.1495 75.8216 19.3908 75.4382C19.6321 75.0549 19.9532 74.7281 20.3323 74.4802C20.7114 74.2323 21.1395 74.0692 21.5874 74.0019C22.0353 73.9346 22.4925 73.9647 22.9277 74.0903C23.3629 74.2158 23.7659 74.4338 24.1091 74.7294C24.4524 75.0249 24.7278 75.391 24.9166 75.8028C25.1054 76.2145 25.2031 76.6611 25.2031 77.114Z" fill="url(#paint2_radial_1_182)"/>
<path fill-rule="evenodd" clip-rule="evenodd" d="M52.7441 20.459C52.7441 20.847 52.6741 21.219 52.5461 21.561C52.7801 21.675 52.9981 21.817 53.1961 21.983C53.5115 21.4587 53.9729 21.0378 54.5239 20.7717C55.0748 20.5057 55.6914 20.406 56.2981 20.485C56.6436 19.871 57.1852 19.3906 57.8361 19.1209C58.487 18.8512 59.2095 18.8077 59.8881 18.9974C60.5666 19.187 61.1619 19.599 61.5786 20.1671C61.9952 20.7353 62.2092 21.4268 62.1861 22.131C62.5955 22.237 62.9793 22.4243 63.3148 22.6816C63.6503 22.939 63.9306 23.2612 64.1391 23.629C64.9221 23.724 65.6401 24.109 66.1521 24.707C66.9244 24.3774 67.7819 24.3035 68.5992 24.4961C69.4165 24.6887 70.1508 25.1377 70.6946 25.7775C71.2385 26.4172 71.5635 27.2141 71.622 28.0518C71.6806 28.8894 71.4697 29.7238 71.0201 30.433C71.5791 30.808 72.0031 31.351 72.2321 31.985C72.7083 31.3335 73.4165 30.8896 74.2104 30.7452C75.0044 30.6008 75.8235 30.7668 76.4986 31.2089C77.1737 31.6511 77.6532 32.3356 77.8381 33.1211C78.023 33.9066 77.8991 34.7332 77.4921 35.43C78.026 35.4906 78.5355 35.6869 78.972 36.0002C79.4086 36.3135 79.7576 36.7333 79.9859 37.2197C80.2143 37.7061 80.3142 38.2428 80.2764 38.7788C80.2385 39.3148 80.064 39.8321 79.7695 40.2816C79.4751 40.731 79.0704 41.0976 78.5942 41.3463C78.1179 41.5951 77.5859 41.7178 77.0488 41.7027C76.5117 41.6876 75.9874 41.5352 75.5258 41.2601C75.0643 40.985 74.6809 40.5963 74.4121 40.131H25.2021V38.923C24.6091 39.2651 23.9206 39.4046 23.2412 39.3202C22.5617 39.2359 21.9283 38.9323 21.4369 38.4555C20.9455 37.9787 20.623 37.3547 20.5182 36.6781C20.4134 36.0014 20.532 35.3091 20.8561 34.706C20.2475 34.212 19.8451 33.5086 19.7277 32.7335C19.6102 31.9584 19.7862 31.1674 20.2212 30.5152C20.6561 29.8631 21.3188 29.3966 22.0794 29.2072C22.8401 29.0178 23.6441 29.119 24.3341 29.491C24.6288 29.1274 25.001 28.8341 25.4235 28.6327C25.846 28.4313 26.3081 28.3269 26.7761 28.327C26.7759 27.8792 26.8713 27.4366 27.0558 27.0286C27.2404 26.6207 27.5098 26.2568 27.8462 25.9613C28.1826 25.6658 28.5782 25.4454 29.0066 25.315C29.4349 25.1846 29.8861 25.1471 30.3301 25.205C30.6413 24.6544 31.1111 24.2103 31.6783 23.9306C32.2456 23.6509 32.8839 23.5486 33.5101 23.637C33.1258 22.9907 32.9856 22.2282 33.1149 21.4875C33.2442 20.7468 33.6344 20.0768 34.2149 19.5989C34.7954 19.121 35.5278 18.8668 36.2796 18.8822C37.0313 18.8976 37.7527 19.1817 38.3131 19.683C39.0086 19.624 39.7039 19.7976 40.29 20.1766C40.8761 20.5557 41.3197 21.1186 41.5511 21.777C41.9611 21.501 42.4311 21.327 42.9221 21.267C43.2694 20.6533 43.8128 20.1739 44.465 19.9059C45.1173 19.6379 45.8407 19.5967 46.5191 19.789C46.6843 19.0301 47.1242 18.359 47.7542 17.9049C48.3842 17.4507 49.1599 17.2454 49.9321 17.3285C50.7043 17.4116 51.4185 17.7773 51.9374 18.3552C52.4563 18.933 52.7443 19.6823 52.7441 20.459Z" fill="url(#paint3_radial_1_182)"/>
<path opacity="0.6" d="M46.8432 36.984C47.8249 36.984 48.7969 36.7906 49.7039 36.4149C50.6109 36.0392 51.435 35.4886 52.1291 34.7944C52.8233 34.1003 53.3739 33.2762 53.7496 32.3692C54.1253 31.4622 54.3187 30.4902 54.3187 29.5085C54.3187 28.5268 54.1253 27.5547 53.7496 26.6477C53.3739 25.7407 52.8233 24.9166 52.1291 24.2225C51.435 23.5283 50.6109 22.9777 49.7039 22.602C48.7969 22.2263 47.8249 22.033 46.8432 22.033C44.8607 22.033 42.9594 22.8205 41.5575 24.2223C40.1557 25.6242 39.3682 27.5255 39.3682 29.508C39.3682 31.4905 40.1557 33.3917 41.5575 34.7936C42.9594 36.1954 44.8607 36.984 46.8432 36.984Z" fill="url(#paint4_radial_1_182)"/>
<path opacity="0.6" d="M44.4819 32.262C45.8385 32.262 47.1395 31.7231 48.0988 30.7638C49.058 29.8046 49.5969 28.5036 49.5969 27.147C49.5969 25.7904 49.058 24.4894 48.0988 23.5301C47.1395 22.5709 45.8385 22.032 44.4819 22.032C43.1254 22.032 41.8243 22.5709 40.8651 23.5301C39.9058 24.4894 39.3669 25.7904 39.3669 27.147C39.3669 28.5036 39.9058 29.8046 40.8651 30.7638C41.8243 31.7231 43.1254 32.262 44.4819 32.262Z" fill="url(#paint5_radial_1_182)"/>
<path opacity="0.6" d="M42.908 36.197C44.2645 36.197 45.5656 35.6581 46.5248 34.6989C47.4841 33.7396 48.023 32.4386 48.023 31.082C48.023 29.7255 47.4841 28.4244 46.5248 27.4652C45.5656 26.5059 44.2645 25.967 42.908 25.967C41.5514 25.967 40.2504 26.5059 39.2911 27.4652C38.3319 28.4244 37.793 29.7255 37.793 31.082C37.793 32.4386 38.3319 33.7396 39.2911 34.6989C40.2504 35.6581 41.5514 36.197 42.908 36.197Z" fill="url(#paint6_radial_1_182)"/>
<path opacity="0.6" d="M27.958 38.557C29.3146 38.557 30.6156 38.0181 31.5749 37.0589C32.5341 36.0996 33.073 34.7986 33.073 33.442C33.073 32.0854 32.5341 30.7844 31.5749 29.8252C30.6156 28.8659 29.3146 28.327 27.958 28.327C26.6014 28.327 25.3004 28.8659 24.3412 29.8252C23.3819 30.7844 22.843 32.0854 22.843 33.442C22.843 34.7986 23.3819 36.0996 24.3412 37.0589C25.3004 38.0181 26.6014 38.557 27.958 38.557Z" fill="url(#paint7_radial_1_182)"/>
<path opacity="0.6" d="M31.105 36.197C32.4616 36.197 33.7626 35.6581 34.7218 34.6989C35.6811 33.7396 36.22 32.4386 36.22 31.082C36.22 29.7255 35.6811 28.4244 34.7218 27.4652C33.7626 26.5059 32.4616 25.967 31.105 25.967C29.7484 25.967 28.4474 26.5059 27.4881 27.4652C26.5289 28.4244 25.99 29.7255 25.99 31.082C25.99 32.4386 26.5289 33.7396 27.4881 34.6989C28.4474 35.6581 29.7484 36.197 31.105 36.197Z" fill="url(#paint8_radial_1_182)"/>
<path opacity="0.6" d="M31.1051 37.77C31.8355 37.77 32.536 37.4798 33.0524 36.9633C33.5689 36.4469 33.8591 35.7464 33.8591 35.016C33.8591 34.2856 33.5689 33.5851 33.0524 33.0686C32.536 32.5521 31.8355 32.262 31.1051 32.262C30.3747 32.262 29.6742 32.5521 29.1577 33.0686C28.6412 33.5851 28.3511 34.2856 28.3511 35.016C28.3511 35.7464 28.6412 36.4469 29.1577 36.9633C29.6742 37.4798 30.3747 37.77 31.1051 37.77Z" fill="url(#paint9_radial_1_182)"/>
<path opacity="0.2" d="M74.3841 36.197C75.1145 36.197 75.815 35.9068 76.3315 35.3903C76.848 34.8739 77.1381 34.1734 77.1381 33.443C77.1381 32.7126 76.848 32.0121 76.3315 31.4956C75.815 30.9791 75.1145 30.689 74.3841 30.689C73.6537 30.689 72.9532 30.9791 72.4368 31.4956C71.9203 32.0121 71.6301 32.7126 71.6301 33.443C71.6301 34.1734 71.9203 34.8739 72.4368 35.3903C72.9532 35.9068 73.6537 36.197 74.3841 36.197Z" fill="url(#paint10_radial_1_182)"/>
<path opacity="0.2" d="M77.531 39.344C78.0526 39.344 78.553 39.1368 78.9218 38.7679C79.2907 38.399 79.498 37.8987 79.498 37.377C79.498 36.8554 79.2907 36.355 78.9218 35.9862C78.553 35.6173 78.0526 35.41 77.531 35.41C77.0093 35.41 76.509 35.6173 76.1401 35.9862C75.7712 36.355 75.564 36.8554 75.564 37.377C75.564 37.8987 75.7712 38.399 76.1401 38.7679C76.509 39.1368 77.0093 39.344 77.531 39.344Z" fill="url(#paint11_radial_1_182)"/>
<path opacity="0.3" d="M73.5972 40.131C74.5363 40.131 75.4369 39.7579 76.101 39.0938C76.7651 38.4297 77.1382 37.5291 77.1382 36.59C77.1382 35.6508 76.7651 34.7502 76.101 34.0861C75.4369 33.422 74.5363 33.049 73.5972 33.049C72.658 33.049 71.7574 33.422 71.0933 34.0861C70.4292 34.7502 70.0562 35.6508 70.0562 36.59C70.0562 37.5291 70.4292 38.4297 71.0933 39.0938C71.7574 39.7579 72.658 40.131 73.5972 40.131Z" fill="url(#paint12_radial_1_182)"/>
<path opacity="0.2" d="M59.433 24.393C59.7946 24.393 60.1527 24.3218 60.4869 24.1834C60.821 24.045 61.1246 23.8421 61.3803 23.5864C61.6361 23.3306 61.8389 23.027 61.9773 22.6929C62.1157 22.3588 62.187 22.0007 62.187 21.639C62.187 21.2773 62.1157 20.9192 61.9773 20.5851C61.8389 20.251 61.6361 19.9474 61.3803 19.6916C61.1246 19.4359 60.821 19.233 60.4869 19.0946C60.1527 18.9562 59.7946 18.885 59.433 18.885C58.7026 18.885 58.0021 19.1752 57.4856 19.6916C56.9691 20.2081 56.679 20.9086 56.679 21.639C56.679 22.3694 56.9691 23.0699 57.4856 23.5864C58.0021 24.1029 58.7026 24.393 59.433 24.393Z" fill="url(#paint13_radial_1_182)"/>
<path opacity="0.2" d="M49.2031 21.246C49.7249 21.246 50.2254 21.0387 50.5943 20.6698C50.9633 20.3008 51.1706 19.8003 51.1706 19.2785C51.1706 18.7567 50.9633 18.2563 50.5943 17.8873C50.2254 17.5183 49.7249 17.311 49.2031 17.311C48.6813 17.311 48.1808 17.5183 47.8119 17.8873C47.4429 18.2563 47.2356 18.7567 47.2356 19.2785C47.2356 19.8003 47.4429 20.3008 47.8119 20.6698C48.1808 21.0387 48.6813 21.246 49.2031 21.246Z" fill="url(#paint14_radial_1_182)"/>
<path opacity="0.2" d="M35.8261 23.607C36.348 23.607 36.8484 23.3997 37.2174 23.0307C37.5864 22.6618 37.7936 22.1613 37.7936 21.6395C37.7936 21.1177 37.5864 20.6172 37.2174 20.2483C36.8484 19.8793 36.348 19.672 35.8261 19.672C35.3043 19.672 34.8039 19.8793 34.4349 20.2483C34.0659 20.6172 33.8586 21.1177 33.8586 21.6395C33.8586 22.1613 34.0659 22.6618 34.4349 23.0307C34.8039 23.3997 35.3043 23.607 35.8261 23.607Z" fill="url(#paint15_radial_1_182)"/>
<path opacity="0.2" d="M62.5801 33.0499C63.9367 33.0499 65.2377 32.511 66.1969 31.5518C67.1562 30.5925 67.6951 29.2915 67.6951 27.9349C67.6951 26.5784 67.1562 25.2773 66.1969 24.3181C65.2377 23.3588 63.9367 22.8199 62.5801 22.8199C61.2235 22.8199 59.9225 23.3588 58.9632 24.3181C58.004 25.2773 57.4651 26.5784 57.4651 27.9349C57.4651 29.2915 58.004 30.5925 58.9632 31.5518C59.9225 32.511 61.2235 33.0499 62.5801 33.0499Z" fill="url(#paint16_radial_1_182)"/>
<path opacity="0.6" d="M57.8601 31.475C58.5378 31.4845 59.2106 31.3592 59.8394 31.1064C60.4682 30.8536 61.0405 30.4784 61.5231 30.0025C62.0057 29.5267 62.3889 28.9596 62.6504 28.3344C62.9119 27.7092 63.0466 27.0382 63.0466 26.3605C63.0466 25.6828 62.9119 25.0118 62.6504 24.3866C62.3889 23.7613 62.0057 23.1943 61.5231 22.7184C61.0405 22.2426 60.4682 21.8673 59.8394 21.6146C59.2106 21.3618 58.5378 21.2365 57.8601 21.246C56.5035 21.246 55.2025 21.7849 54.2433 22.7441C53.284 23.7034 52.7451 25.0044 52.7451 26.361C52.7451 27.7176 53.284 29.0186 54.2433 29.9778C55.2025 30.9371 56.5035 31.475 57.8601 31.475Z" fill="url(#paint17_radial_1_182)"/>
<path opacity="0.2" d="M60.22 33.836C61.5766 33.836 62.8776 33.2971 63.8368 32.3378C64.7961 31.3786 65.335 30.0775 65.335 28.721C65.335 27.3644 64.7961 26.0634 63.8368 25.1041C62.8776 24.1449 61.5766 23.606 60.22 23.606C58.8634 23.606 57.5624 24.1449 56.6031 25.1041C55.6439 26.0634 55.105 27.3644 55.105 28.721C55.105 30.0775 55.6439 31.3786 56.6031 32.3378C57.5624 33.2971 58.8634 33.836 60.22 33.836Z" fill="url(#paint18_radial_1_182)"/>
<path d="M19.6951 36.984H64.5481L60.6131 88.918H22.8431L19.6951 36.984Z" fill="url(#paint19_linear_1_182)"/>
<path d="M72.417 85.77L60.613 88.918L64.548 36.984L79.498 40.918L72.417 85.77Z" fill="url(#paint20_linear_1_182)"/>
<path fill-rule="evenodd" clip-rule="evenodd" d="M47.1402 47.333L47.3942 36.983H38.0062L38.1102 46.823C36.4713 47.1893 34.8983 47.8048 33.4462 48.648L33.1192 36.984H23.7122L26.6392 88.918H34.5822L34.2652 77.698C35.5888 78.3692 36.9973 78.858 38.4522 79.151L38.5572 88.918H46.1152L46.3652 78.817C47.6499 78.4418 48.884 77.9112 50.0402 77.237L49.6702 88.918H57.9912L60.7322 36.984H51.3152L50.9272 49.221C49.7509 48.4314 48.4778 47.7968 47.1392 47.333H47.1402ZM63.2182 88.223L66.1682 87.437L72.0132 38.949L67.5122 37.763L63.2182 88.223ZM67.8482 86.989L70.1652 86.371L78.0032 40.525L73.6282 39.373L67.8482 86.989ZM54.3172 62.95C54.3172 69.903 48.6812 75.54 41.7272 75.54C34.7732 75.54 29.1372 69.904 29.1372 62.95C29.1372 55.996 34.7732 50.36 41.7272 50.36C48.6812 50.36 54.3172 55.996 54.3172 62.95ZM47.1452 69.745L45.4502 64.26L49.5582 61.213C49.6219 61.1658 49.6697 61.1003 49.6952 61.0252C49.7207 60.9502 49.7227 60.8691 49.701 60.7928C49.6793 60.7166 49.6348 60.6488 49.5736 60.5984C49.5123 60.5481 49.4372 60.5176 49.3582 60.511C47.633 60.3718 45.9044 60.2804 44.1742 60.237L42.0982 54.525C42.0704 54.4492 42.02 54.3837 41.9539 54.3375C41.8877 54.2912 41.8089 54.2664 41.7282 54.2664C41.6474 54.2664 41.5686 54.2912 41.5025 54.3375C41.4363 54.3837 41.3859 54.4492 41.3582 54.525L39.2822 60.237C37.5222 60.281 35.7922 60.374 34.0972 60.511C34.0183 60.5179 33.9434 60.5487 33.8824 60.5992C33.8215 60.6496 33.7773 60.7175 33.7558 60.7937C33.7343 60.8699 33.7365 60.9508 33.7621 61.0257C33.7877 61.1006 33.8355 61.1659 33.8992 61.213L38.0062 64.259L36.3102 69.744C36.2861 69.8221 36.2868 69.9056 36.3123 69.9832C36.3378 70.0608 36.3868 70.1285 36.4525 70.177C36.5181 70.2256 36.5972 70.2525 36.6789 70.2541C36.7605 70.2557 36.8406 70.2319 36.9082 70.186L41.7282 66.905L46.5482 70.186C46.6156 70.2321 46.6957 70.2562 46.7774 70.2547C46.8591 70.2533 46.9383 70.2265 47.0041 70.1781C47.0699 70.1296 47.119 70.0619 47.1447 69.9844C47.1703 69.9068 47.1712 69.8231 47.1472 69.745H47.1452Z" fill="url(#paint21_linear_1_182)"/>
<path opacity="0.4" d="M17.728 82.623C18.2497 82.623 18.75 82.4157 19.1189 82.0468C19.4878 81.678 19.695 81.1776 19.695 80.656C19.695 80.1343 19.4878 79.634 19.1189 79.2651C18.75 78.8962 18.2497 78.689 17.728 78.689C17.2063 78.689 16.706 78.8962 16.3371 79.2651C15.9682 79.634 15.761 80.1343 15.761 80.656C15.761 81.1776 15.9682 81.678 16.3371 82.0468C16.706 82.4157 17.2063 82.623 17.728 82.623Z" fill="url(#paint22_radial_1_182)"/>
<path opacity="0.4" d="M14.58 84.9839C15.1019 84.9839 15.6023 84.7767 15.9713 84.4077C16.3403 84.0387 16.5475 83.5383 16.5475 83.0164C16.5475 82.4946 16.3403 81.9942 15.9713 81.6252C15.6023 81.2562 15.1019 81.049 14.58 81.049C14.0582 81.049 13.5578 81.2562 13.1888 81.6252C12.8198 81.9942 12.6125 82.4946 12.6125 83.0164C12.6125 83.5383 12.8198 84.0387 13.1888 84.4077C13.5578 84.7767 14.0582 84.9839 14.58 84.9839Z" fill="url(#paint23_radial_1_182)"/>
<path opacity="0.4" d="M16.9411 84.9839C17.4629 84.9839 17.9634 84.7767 18.3324 84.4077C18.7013 84.0387 18.9086 83.5383 18.9086 83.0164C18.9086 82.4946 18.7013 81.9942 18.3324 81.6252C17.9634 81.2562 17.4629 81.049 16.9411 81.049C16.4193 81.049 15.9189 81.2562 15.5499 81.6252C15.1809 81.9942 14.9736 82.4946 14.9736 83.0164C14.9736 83.5383 15.1809 84.0387 15.5499 84.4077C15.9189 84.7767 16.4193 84.9839 16.9411 84.9839Z" fill="url(#paint24_radial_1_182)"/>
<path opacity="0.4" d="M20.0891 86.557C20.3474 86.557 20.6032 86.5062 20.8418 86.4073C21.0805 86.3085 21.2973 86.1636 21.4799 85.9809C21.6626 85.7983 21.8075 85.5814 21.9063 85.3428C22.0052 85.1041 22.0561 84.8484 22.0561 84.59C22.0561 84.3317 22.0052 84.076 21.9063 83.8373C21.8075 83.5987 21.6626 83.3818 21.4799 83.1992C21.2973 83.0165 21.0805 82.8716 20.8418 82.7728C20.6032 82.6739 20.3474 82.623 20.0891 82.623C19.5674 82.623 19.0671 82.8303 18.6982 83.1992C18.3293 83.568 18.1221 84.0684 18.1221 84.59C18.1221 85.1117 18.3293 85.612 18.6982 85.9809C19.0671 86.3498 19.5674 86.557 20.0891 86.557Z" fill="url(#paint25_radial_1_182)"/>
<path opacity="0.4" d="M83.04 85.7699C83.5617 85.7699 84.062 85.5627 84.4309 85.1938C84.7998 84.8249 85.007 84.3246 85.007 83.8029C85.007 83.2813 84.7998 82.7809 84.4309 82.4121C84.062 82.0432 83.5617 81.8359 83.04 81.8359C82.5183 81.8359 82.018 82.0432 81.6491 82.4121C81.2802 82.7809 81.073 83.2813 81.073 83.8029C81.073 84.3246 81.2802 84.8249 81.6491 85.1938C82.018 85.5627 82.5183 85.7699 83.04 85.7699Z" fill="url(#paint26_radial_1_182)"/>
<path opacity="0.4" d="M82.6461 82.623C83.2722 82.623 83.8726 82.3743 84.3153 81.9316C84.7579 81.4889 85.0066 80.8885 85.0066 80.2625C85.0066 79.6364 84.7579 79.036 84.3153 78.5934C83.8726 78.1507 83.2722 77.902 82.6461 77.902C82.0201 77.902 81.4197 78.1507 80.977 78.5934C80.5343 79.036 80.2856 79.6364 80.2856 80.2625C80.2856 80.8885 80.5343 81.4889 80.977 81.9316C81.4197 82.3743 82.0201 82.623 82.6461 82.623Z" fill="url(#paint27_radial_1_182)"/>
<path opacity="0.4" d="M78.7121 82.623C79.3381 82.623 79.9385 82.3743 80.3812 81.9316C80.8239 81.4889 81.0726 80.8885 81.0726 80.2625C81.0726 79.6364 80.8239 79.036 80.3812 78.5934C79.9385 78.1507 79.3381 77.902 78.7121 77.902C78.086 77.902 77.4856 78.1507 77.0429 78.5934C76.6003 79.036 76.3516 79.6364 76.3516 80.2625C76.3516 80.8885 76.6003 81.4889 77.0429 81.9316C77.4856 82.3743 78.086 82.623 78.7121 82.623Z" fill="url(#paint28_radial_1_182)"/>
<path opacity="0.4" d="M75.9571 81.836C76.6875 81.836 77.388 81.5458 77.9045 81.0294C78.421 80.5129 78.7111 79.8124 78.7111 79.082C78.7111 78.3516 78.421 77.6511 77.9045 77.1346C77.388 76.6182 76.6875 76.328 75.9571 76.328C75.2267 76.328 74.5262 76.6182 74.0098 77.1346C73.4933 77.6511 73.2031 78.3516 73.2031 79.082C73.2031 79.8124 73.4933 80.5129 74.0098 81.0294C74.5262 81.5458 75.2267 81.836 75.9571 81.836Z" fill="url(#paint29_radial_1_182)"/>
<path opacity="0.4" d="M19.3021 84.984C20.0326 84.984 20.7333 84.6938 21.2498 84.1772C21.7664 83.6606 22.0566 82.96 22.0566 82.2295C22.0566 81.4989 21.7664 80.7983 21.2498 80.2818C20.7333 79.7652 20.0326 79.475 19.3021 79.475C18.5716 79.475 17.871 79.7652 17.3544 80.2818C16.8378 80.7983 16.5476 81.4989 16.5476 82.2295C16.5476 82.96 16.8378 83.6606 17.3544 84.1772C17.871 84.6938 18.5716 84.984 19.3021 84.984Z" fill="url(#paint30_radial_1_182)"/>
<path fill-rule="evenodd" clip-rule="evenodd" d="M74.7772 79.475C75.4032 79.4752 76.0034 79.7241 76.446 80.1669C76.8885 80.6096 77.1372 81.21 77.1372 81.836C77.5883 81.8357 78.0341 81.9324 78.4446 82.1196C78.8551 82.3067 79.2205 82.5798 79.5162 82.9205C79.8119 83.2612 80.031 83.6614 80.1585 84.0941C80.286 84.5268 80.319 84.9819 80.2553 85.4285C80.1916 85.8751 80.0327 86.3027 79.7893 86.6825C79.5459 87.0623 79.2237 87.3854 78.8446 87.6298C78.4654 87.8742 78.0382 88.0343 77.5918 88.0992C77.1453 88.1641 76.6902 88.1323 76.2571 88.006C76.0937 88.5751 75.7223 89.062 75.2166 89.3701C74.711 89.6782 74.1079 89.7849 73.5272 89.6691C72.9465 89.5533 72.4306 89.2234 72.0818 88.7449C71.7329 88.2664 71.5767 87.6743 71.6441 87.086C71.1071 86.8347 70.6655 86.417 70.3849 85.8947C70.1042 85.3725 69.9995 84.7736 70.0863 84.1872C70.1732 83.6007 70.4469 83.0579 70.8668 82.6393C71.2867 82.2208 71.8304 81.9489 72.4172 81.864V81.836C72.4172 81.2101 72.6658 80.6098 73.1084 80.1672C73.551 79.7246 74.1512 79.475 74.7772 79.475Z" fill="url(#paint31_radial_1_182)"/>
</g>
<defs>
<radialGradient id="paint0_radial_1_182" cx="0" cy="0" r="1" gradientUnits="userSpaceOnUse" gradientTransform="translate(48.8101 86.604) rotate(-90) scale(8.70201 48.2567)">
<stop offset="0.286" stop-color="#7D2889"/>
<stop offset="0.724" stop-color="#FF66D9" stop-opacity="0.41"/>
<stop offset="1" stop-color="white" stop-opacity="0"/>
</radialGradient>
<radialGradient id="paint1_radial_1_182" cx="0" cy="0" r="1" gradientUnits="userSpaceOnUse" gradientTransform="translate(48.8101 39.155) rotate(-90) scale(38.3681 48.2567)">
<stop stop-color="#FFCA45"/>
<stop offset="0.453" stop-color="#FF66D9" stop-opacity="0.36"/>
<stop offset="1" stop-color="white" stop-opacity="0"/>
</radialGradient>
<radialGradient id="paint2_radial_1_182" cx="0" cy="0" r="1" gradientUnits="userSpaceOnUse" gradientTransform="translate(47.6301 79.476) rotate(180) scale(37.7705 37.7705)">
<stop offset="0.432" stop-color="#FF8B54"/>
<stop offset="0.76" stop-color="#FFBB8D"/>
<stop offset="1" stop-color="#F9DDD1"/>
</radialGradient>
<radialGradient id="paint3_radial_1_182" cx="0" cy="0" r="1" gradientUnits="userSpaceOnUse" gradientTransform="translate(48.4171 27.934) rotate(-90) scale(10.623 28.257)">
<stop offset="0.302" stop-color="#F9DDD1"/>
<stop offset="0.674" stop-color="#FFBB8D"/>
<stop offset="1" stop-color="#FF8B54"/>
</radialGradient>
<radialGradient id="paint4_radial_1_182" cx="0" cy="0" r="1" gradientUnits="userSpaceOnUse" gradientTransform="translate(46.8422 29.948) rotate(90) scale(7.03568)">
<stop offset="0.375" stop-color="#FFF4EB"/>
<stop offset="1" stop-color="#FFF3EB" stop-opacity="0"/>
</radialGradient>
<radialGradient id="paint5_radial_1_182" cx="0" cy="0" r="1" gradientUnits="userSpaceOnUse" gradientTransform="translate(44.4819 27.448) rotate(90) scale(4.81389)">
<stop offset="0.375" stop-color="#FFF4EB"/>
<stop offset="1" stop-color="#FFF3EB" stop-opacity="0"/>
</radialGradient>
<radialGradient id="paint6_radial_1_182" cx="0" cy="0" r="1" gradientUnits="userSpaceOnUse" gradientTransform="translate(42.908 31.382) rotate(90) scale(4.81389)">
<stop offset="0.375" stop-color="#FFF4EB"/>
<stop offset="1" stop-color="#FFF3EB" stop-opacity="0"/>
</radialGradient>
<radialGradient id="paint7_radial_1_182" cx="0" cy="0" r="1" gradientUnits="userSpaceOnUse" gradientTransform="translate(27.957 33.743) rotate(90) scale(4.81389)">
<stop offset="0.375" stop-color="#FFF4EB"/>
<stop offset="1" stop-color="#FFF3EB" stop-opacity="0"/>
</radialGradient>
<radialGradient id="paint8_radial_1_182" cx="0" cy="0" r="1" gradientUnits="userSpaceOnUse" gradientTransform="translate(31.105 31.383) rotate(90) scale(4.81389)">
<stop offset="0.375" stop-color="#FFF4EB"/>
<stop offset="1" stop-color="#FFF3EB" stop-opacity="0"/>
</radialGradient>
<radialGradient id="paint9_radial_1_182" cx="0" cy="0" r="1" gradientUnits="userSpaceOnUse" gradientTransform="translate(31.1051 35.179) rotate(90) scale(2.59209)">
<stop offset="0.375" stop-color="#FFF4EB"/>
<stop offset="1" stop-color="#FFF3EB" stop-opacity="0"/>
</radialGradient>
<radialGradient id="paint10_radial_1_182" cx="0" cy="0" r="1" gradientUnits="userSpaceOnUse" gradientTransform="translate(74.3851 33.605) rotate(90) scale(2.59209 2.59209)">
<stop offset="0.375" stop-color="#FFF4EB"/>
<stop offset="1" stop-color="#FFF3EB" stop-opacity="0"/>
</radialGradient>
<radialGradient id="paint11_radial_1_182" cx="0" cy="0" r="1" gradientUnits="userSpaceOnUse" gradientTransform="translate(77.531 37.493) rotate(90) scale(1.85149 1.85149)">
<stop offset="0.375" stop-color="#FFF4EB"/>
<stop offset="1" stop-color="#FFF3EB" stop-opacity="0"/>
</radialGradient>
<radialGradient id="paint12_radial_1_182" cx="0" cy="0" r="1" gradientUnits="userSpaceOnUse" gradientTransform="translate(73.5962 36.798) rotate(90) scale(3.33269)">
<stop offset="0.375" stop-color="#FFF4EB"/>
<stop offset="1" stop-color="#FFF3EB" stop-opacity="0"/>
</radialGradient>
<radialGradient id="paint13_radial_1_182" cx="0" cy="0" r="1" gradientUnits="userSpaceOnUse" gradientTransform="translate(59.432 21.802) rotate(90) scale(2.59209)">
<stop offset="0.375" stop-color="#FFF4EB"/>
<stop offset="1" stop-color="#FFF3EB" stop-opacity="0"/>
</radialGradient>
<radialGradient id="paint14_radial_1_182" cx="0" cy="0" r="1" gradientUnits="userSpaceOnUse" gradientTransform="translate(49.2041 19.394) rotate(90) scale(1.8515)">
<stop offset="0.375" stop-color="#FFF4EB"/>
<stop offset="1" stop-color="#FFF3EB" stop-opacity="0"/>
</radialGradient>
<radialGradient id="paint15_radial_1_182" cx="0" cy="0" r="1" gradientUnits="userSpaceOnUse" gradientTransform="translate(35.8261 21.756) rotate(90) scale(1.85149)">
<stop offset="0.375" stop-color="#FFF4EB"/>
<stop offset="1" stop-color="#FFF3EB" stop-opacity="0"/>
</radialGradient>
<radialGradient id="paint16_radial_1_182" cx="0" cy="0" r="1" gradientUnits="userSpaceOnUse" gradientTransform="translate(62.5811 28.2349) rotate(90) scale(4.81389 4.81389)">
<stop offset="0.375" stop-color="#FFF4EB"/>
<stop offset="1" stop-color="#FFF3EB" stop-opacity="0"/>
</radialGradient>
<radialGradient id="paint17_radial_1_182" cx="0" cy="0" r="1" gradientUnits="userSpaceOnUse" gradientTransform="translate(57.8591 26.661) rotate(90) scale(4.81389)">
<stop offset="0.375" stop-color="#FFF4EB"/>
<stop offset="1" stop-color="#FFF3EB" stop-opacity="0"/>
</radialGradient>
<radialGradient id="paint18_radial_1_182" cx="0" cy="0" r="1" gradientUnits="userSpaceOnUse" gradientTransform="translate(60.22 29.022) rotate(90) scale(4.81389 4.81389)">
<stop offset="0.375" stop-color="#FFF4EB"/>
<stop offset="1" stop-color="#FFF3EB" stop-opacity="0"/>
</radialGradient>
<linearGradient id="paint19_linear_1_182" x1="60.6131" y1="88.918" x2="34.5741" y2="21.046" gradientUnits="userSpaceOnUse">
<stop stop-color="#E0B1CC"/>
<stop offset="0.431" stop-color="#FFF1F1"/>
<stop offset="1" stop-color="#FFC9A5"/>
</linearGradient>
<linearGradient id="paint20_linear_1_182" x1="60.613" y1="53.115" x2="84.22" y2="53.115" gradientUnits="userSpaceOnUse">
<stop stop-color="#D16AE9"/>
<stop offset="1" stop-color="#FF661D"/>
</linearGradient>
<linearGradient id="paint21_linear_1_182" x1="18.9212" y1="36.984" x2="75.9462" y2="85.621" gradientUnits="userSpaceOnUse">
<stop stop-color="#FF661D"/>
<stop offset="0.5" stop-color="#CE3A00"/>
<stop offset="1" stop-color="#A60A5E"/>
</linearGradient>
<radialGradient id="paint22_radial_1_182" cx="0" cy="0" r="1" gradientUnits="userSpaceOnUse" gradientTransform="translate(17.728 80.772) rotate(90) scale(1.8515)">
<stop offset="0.375" stop-color="#F9DDD1"/>
<stop offset="1" stop-color="#FFF3EB" stop-opacity="0"/>
</radialGradient>
<radialGradient id="paint23_radial_1_182" cx="0" cy="0" r="1" gradientUnits="userSpaceOnUse" gradientTransform="translate(14.581 83.1329) rotate(90) scale(1.8515 1.8515)">
<stop offset="0.375" stop-color="#F9DDD1"/>
<stop offset="1" stop-color="#FFF3EB" stop-opacity="0"/>
</radialGradient>
<radialGradient id="paint24_radial_1_182" cx="0" cy="0" r="1" gradientUnits="userSpaceOnUse" gradientTransform="translate(16.9421 83.1319) rotate(90) scale(1.8515)">
<stop offset="0.375" stop-color="#F9DDD1"/>
<stop offset="1" stop-color="#FFF3EB" stop-opacity="0"/>
</radialGradient>
<radialGradient id="paint25_radial_1_182" cx="0" cy="0" r="1" gradientUnits="userSpaceOnUse" gradientTransform="translate(20.0891 84.707) rotate(90) scale(1.85149)">
<stop offset="0.375" stop-color="#F9DDD1"/>
<stop offset="1" stop-color="#FFF3EB" stop-opacity="0"/>
</radialGradient>
<radialGradient id="paint26_radial_1_182" cx="0" cy="0" r="1" gradientUnits="userSpaceOnUse" gradientTransform="translate(83.04 83.9199) rotate(90) scale(1.85149)">
<stop offset="0.375" stop-color="#F9DDD1"/>
<stop offset="1" stop-color="#FFF3EB" stop-opacity="0"/>
</radialGradient>
<radialGradient id="paint27_radial_1_182" cx="0" cy="0" r="1" gradientUnits="userSpaceOnUse" gradientTransform="translate(82.6461 80.4) rotate(90) scale(2.2218)">
<stop offset="0.375" stop-color="#F9DDD1"/>
<stop offset="1" stop-color="#FFF3EB" stop-opacity="0"/>
</radialGradient>
<radialGradient id="paint28_radial_1_182" cx="0" cy="0" r="1" gradientUnits="userSpaceOnUse" gradientTransform="translate(78.7111 80.401) rotate(90) scale(2.2218)">
<stop offset="0.375" stop-color="#F9DDD1"/>
<stop offset="1" stop-color="#FFF3EB" stop-opacity="0"/>
</radialGradient>
<radialGradient id="paint29_radial_1_182" cx="0" cy="0" r="1" gradientUnits="userSpaceOnUse" gradientTransform="translate(75.9581 79.244) rotate(90) scale(2.5921 2.5921)">
<stop offset="0.375" stop-color="#F9DDD1"/>
<stop offset="1" stop-color="#FFF3EB" stop-opacity="0"/>
</radialGradient>
<radialGradient id="paint30_radial_1_182" cx="0" cy="0" r="1" gradientUnits="userSpaceOnUse" gradientTransform="translate(19.3021 82.392) rotate(90) scale(2.5921 2.5921)">
<stop offset="0.375" stop-color="#F9DDD1"/>
<stop offset="1" stop-color="#FFF3EB" stop-opacity="0"/>
</radialGradient>
<radialGradient id="paint31_radial_1_182" cx="0" cy="0" r="1" gradientUnits="userSpaceOnUse" gradientTransform="translate(77.1382 84.5904) rotate(111.038) scale(5.48002)">
<stop stop-color="#FDF7F2"/>
<stop offset="1" stop-color="#FFD8BD"/>
</radialGradient>
<clipPath id="clip0_1_182">
<rect width="96" height="96" fill="white" transform="translate(0.810059)"/>
</clipPath>
</defs>
</svg>
