<svg width="35" height="11" viewBox="0 0 35 11" fill="none" xmlns="http://www.w3.org/2000/svg">
<path d="M6.26322 3.9196C6.26447 3.69241 6.22095 3.46721 6.13516 3.25684C6.04937 3.04647 5.92299 2.85506 5.76322 2.69354C5.60345 2.53202 5.41344 2.40355 5.20402 2.31547C4.99461 2.22738 4.76989 2.18141 4.54271 2.18017H3.68245V5.64957H4.54271C4.99988 5.64707 5.43748 5.4637 5.75987 5.13954C6.08227 4.81538 6.26323 4.37678 6.26322 3.9196ZM10.158 10.8489H7.0195L4.5238 7.37954H3.68245V10.8489H0.912598V0.450195H4.88303C7.17075 0.450195 9.03307 2.01001 9.03307 3.9196C9.00907 4.50958 8.82938 5.08271 8.51226 5.58081C8.19515 6.0789 7.75188 6.48422 7.22747 6.75562L10.158 10.8489Z" fill="white"/>
<path d="M13.287 4.54371C12.5591 4.54371 11.9352 5.48906 11.9352 6.76526C11.9352 8.04147 12.5591 8.95845 13.287 8.95845C14.0149 8.95845 14.6577 8.01311 14.6577 6.72745C14.6577 5.44179 14.0338 4.5059 13.287 4.5059M17.5505 6.76526C17.558 7.61007 17.3143 8.43806 16.8504 9.14414C16.3865 9.85023 15.7233 10.4026 14.9449 10.7311C14.1666 11.0596 13.3082 11.1494 12.4787 10.9892C11.6491 10.829 10.8859 10.4259 10.2859 9.83122C9.68584 9.23649 9.27601 8.4769 9.10842 7.64885C8.94082 6.8208 9.02301 5.96162 9.34457 5.18037C9.66612 4.39911 10.2125 3.731 10.9145 3.26083C11.6164 2.79066 12.4422 2.53963 13.287 2.53959C13.8444 2.5371 14.3968 2.64443 14.9128 2.85545C15.4287 3.06646 15.898 3.37703 16.2939 3.76942C16.6898 4.16181 17.0046 4.62834 17.2202 5.14237C17.4358 5.6564 17.548 6.20786 17.5505 6.76526ZM24.0544 2.70975L20.8592 5.89555V2.7003H18.0893V10.8491H20.8592V7.53099L24.1962 10.8491H27.6751L23.44 6.5951L26.9472 3.09734V7.91858C26.9472 9.52566 27.8925 11.0004 30.3409 11.0004C30.8527 10.9844 31.3562 10.8667 31.822 10.654C32.2879 10.4414 32.7067 10.1382 33.0541 9.76199L34.3114 10.8491H34.9448V2.70975H32.1087V8.01311C31.9821 8.28136 31.7813 8.50767 31.5299 8.66517C31.2786 8.82268 30.9873 8.90478 30.6907 8.90173C30.0101 8.90173 29.6981 8.49524 29.6981 7.20958V2.70975H24.0544Z" fill="white"/>
</svg>
