<svg width="59" height="10" viewBox="0 0 59 10" fill="none" xmlns="http://www.w3.org/2000/svg">
<g clip-path="url(#clip0_17_9928)">
<path fill-rule="evenodd" clip-rule="evenodd" d="M25.7287 1.4541C25.793 4.29934 25.8567 7.11962 25.9211 9.96914H23.7678V2.48893C23.7265 2.48361 23.6853 2.47821 23.6441 2.47281C23.5662 2.8435 23.4811 3.2129 23.4115 3.58513C23.0323 5.61458 22.661 7.64557 22.2704 9.67278C22.2469 9.7946 22.0845 9.97703 21.9799 9.98192C21.3516 10.0109 20.7213 9.99632 20.0452 9.99632C19.5769 7.49211 19.1122 5.00694 18.6474 2.52185C18.6113 2.52245 18.5752 2.52305 18.5392 2.52365V9.97351H16.3477C16.4102 7.1378 16.4725 4.31974 16.5356 1.46396H20.0519C20.3973 3.58719 20.7443 5.71968 21.0913 7.85217C21.1171 7.85603 21.1428 7.85989 21.1686 7.86366C21.5174 5.73546 21.866 3.60725 22.2188 1.4541H25.7287Z" fill="white"/>
<path fill-rule="evenodd" clip-rule="evenodd" d="M50.9183 9.99419C49.9118 9.99419 48.9273 10.0033 47.9436 9.97905C47.8525 9.9768 47.7265 9.77469 47.685 9.64451C47.0333 7.60177 46.393 5.55558 45.7496 3.51025C45.7123 3.39141 45.6719 3.27343 45.603 3.06405V9.99671C44.9822 9.99671 44.3512 10.0107 43.7226 9.98078C43.6343 9.97654 43.488 9.7579 43.4854 9.63602C43.4654 8.6994 43.4742 7.76225 43.4742 6.82519C43.4742 5.21065 43.4742 3.59611 43.4742 1.98158V1.4541H45.9362C46.7688 1.4541 46.7682 1.45427 47.0052 2.23813C47.5592 4.06975 48.1137 5.9012 48.6687 7.73256C48.7008 7.83859 48.7389 7.94289 48.8071 8.14587V1.48621H50.9183V9.99419Z" fill="white"/>
<path fill-rule="evenodd" clip-rule="evenodd" d="M35.5477 1.4541H37.7816V1.92726C37.7815 3.80496 37.781 5.68266 37.7817 7.56028C37.7819 8.17475 38.1283 8.54792 38.6851 8.5379C39.2131 8.52847 39.5653 8.15538 39.5672 7.56896C39.573 5.7052 39.5694 3.84152 39.5694 1.97767V1.45769H41.8766V1.90907C41.8766 3.66157 41.8763 5.41399 41.8767 7.1665C41.8771 9.10429 41.2178 9.81992 39.1092 9.98551C38.4188 10.0397 37.6833 9.93635 37.0099 9.76667C36.1124 9.54039 35.5495 8.9064 35.5282 8.05539C35.4738 5.88724 35.5021 3.71732 35.4991 1.54808C35.499 1.5243 35.523 1.50042 35.5477 1.4541Z" fill="white"/>
<mask id="mask0_17_9928" style="mask-type:luminance" maskUnits="userSpaceOnUse" x="52" y="0" width="7" height="10">
<path d="M52.5258 0.921875H58.8606V9.91949H52.5258V0.921875Z" fill="white"/>
</mask>
<g mask="url(#mask0_17_9928)">
<path fill-rule="evenodd" clip-rule="evenodd" d="M56.5991 3.91396C56.5751 3.64071 56.5713 3.41251 56.5323 3.19013C56.4508 2.72594 56.0834 2.45602 55.5887 2.47573C55.1296 2.49397 54.7431 2.8038 54.7372 3.24444C54.7174 4.71335 54.7168 6.18276 54.736 7.65167C54.7415 8.06643 55.2141 8.40411 55.6706 8.39331C56.1416 8.38227 56.556 8.02241 56.5788 7.56524C56.6009 7.12503 56.5836 6.68285 56.5836 6.19347H55.7178V4.98146H58.8606C58.7975 6.07346 58.8014 7.18319 58.6469 8.27185C58.5409 9.01847 57.9169 9.44942 57.1879 9.67968C56.2082 9.98925 55.2166 9.99611 54.2288 9.71797C53.2774 9.45002 52.6023 8.85862 52.5651 7.88843C52.5018 6.23853 52.5185 4.58246 52.5896 2.93247C52.63 1.9938 53.28 1.41379 54.1863 1.14199C55.1679 0.847664 56.167 0.848007 57.148 1.14602C58.4717 1.54802 58.8479 2.55702 58.7692 3.67069C58.7632 3.75618 58.6274 3.90094 58.5483 3.90326C57.9029 3.92227 57.2567 3.91396 56.5991 3.91396Z" fill="white"/>
</g>
<mask id="mask1_17_9928" style="mask-type:luminance" maskUnits="userSpaceOnUse" x="0" y="1" width="7" height="9">
<path d="M0.923828 1.4541H6.77424V9.99998H0.923828V1.4541Z" fill="white"/>
</mask>
<g mask="url(#mask1_17_9928)">
<path fill-rule="evenodd" clip-rule="evenodd" d="M0.923864 7.08306H3.0803C3.0803 7.3276 3.08087 7.55073 3.08022 7.77378C3.07925 8.14774 3.23577 8.41521 3.61352 8.52402C3.96511 8.62532 4.28764 8.57076 4.53542 8.29138C4.76806 8.02903 4.80563 7.56599 4.5819 7.28861C4.40133 7.06476 4.17411 6.86224 3.93078 6.7063C3.46874 6.41007 2.97892 6.15618 2.5036 5.87984C2.32983 5.77886 2.15986 5.67005 1.99573 5.55437C1.08225 4.91078 0.793981 4.13258 1.06249 3.04792C1.27594 2.18592 1.94601 1.59593 2.9901 1.49551C3.63806 1.43312 4.31808 1.43216 4.95309 1.55599C6.24067 1.80708 6.77008 2.67133 6.54149 3.9867C6.44205 3.99302 6.33719 4.00508 6.23225 4.00548C5.6953 4.0074 5.1582 4.00636 4.56797 4.00636C4.56797 3.82988 4.56603 3.68904 4.56838 3.54819C4.57486 3.17135 4.42036 2.90868 4.03467 2.8077C3.67223 2.71287 3.35853 2.77702 3.15747 3.11223C2.95998 3.4417 2.99828 3.85848 3.31748 4.08728C3.78308 4.42098 4.2959 4.69061 4.7892 4.98644C5.06508 5.15181 5.34476 5.31103 5.61846 5.47968C6.85672 6.24246 6.97697 7.38775 6.55274 8.66662C6.35525 9.26172 5.85191 9.59765 5.26006 9.77788C4.35104 10.0548 3.42882 10.0788 2.51364 9.81583C1.44348 9.50834 0.924188 8.79956 0.923864 7.69645C0.923783 7.49952 0.923864 7.30259 0.923864 7.08306Z" fill="white"/>
</g>
<path fill-rule="evenodd" clip-rule="evenodd" d="M14.752 9.99974C14.0425 9.99974 13.3937 10.0009 12.7449 9.99829C12.6627 9.99803 12.5805 9.97927 12.4718 9.96582C12.0974 7.41162 11.7244 4.8672 11.3515 2.32278C11.3264 2.32261 11.3013 2.32243 11.2762 2.32226C10.8943 4.86652 10.5125 7.41077 10.1277 9.97524H7.83789C8.36121 7.12255 8.88002 4.29394 9.40096 1.4541H13.1894C13.7075 4.28786 14.2233 7.10833 14.752 9.99974Z" fill="white"/>
<path fill-rule="evenodd" clip-rule="evenodd" d="M27.5189 7.05965H29.6651C29.6651 7.31547 29.6597 7.55364 29.6664 7.79149C29.6765 8.15243 29.8452 8.43741 30.2003 8.51742C30.5451 8.59516 30.9174 8.60002 31.1672 8.2641C31.3665 7.99605 31.382 7.47582 31.1489 7.24283C30.8844 6.97826 30.5804 6.74309 30.2636 6.54136C29.7271 6.19978 29.157 5.91018 28.6191 5.57046C27.704 4.99257 27.4278 4.13618 27.6232 3.11718C27.8042 2.17317 28.4735 1.6637 29.3649 1.53486C30.0791 1.43161 30.8379 1.42076 31.5471 1.54093C32.7849 1.75076 33.2388 2.50357 33.153 3.96563H31.1398C31.1398 3.79622 31.1379 3.6383 31.1402 3.48055C31.1451 3.14277 30.99 2.88978 30.666 2.80928C30.3291 2.72555 29.9637 2.7253 29.7582 3.07612C29.5849 3.37171 29.5521 3.71256 29.8071 3.97794C30.0092 4.18825 30.2632 4.35791 30.5154 4.51137C31.1398 4.89142 31.7902 5.23074 32.405 5.62505C33.3895 6.25663 33.4731 7.21773 33.2886 8.24094C33.1113 9.22383 32.4123 9.67887 31.4958 9.88262C30.6969 10.0604 29.8989 10.0341 29.1128 9.81832C28.1063 9.54225 27.5507 8.8211 27.5199 7.77999C27.5132 7.55372 27.5189 7.32714 27.5189 7.05965Z" fill="white"/>
</g>
<defs>
<clipPath id="clip0_17_9928">
<rect width="57.9723" height="9.08" fill="white" transform="translate(0.923828 0.919922)"/>
</clipPath>
</defs>
</svg>
