<svg width="12" height="10" viewBox="0 0 12 10" fill="none" xmlns="http://www.w3.org/2000/svg">
<path d="M8.85759 9.84647L11.8584 2.44677H10.3495L7.89427 8.8661H8.40577L5.95057 2.4553H4.39902L7.37424 9.84647H8.85759ZM4.03245 9.93172V8.61887H3.879C3.64526 8.63528 3.41065 8.60333 3.18981 8.52502C2.96897 8.44671 2.76665 8.32372 2.59546 8.16373C2.42427 8.00374 2.28789 7.81019 2.19484 7.59514C2.1018 7.3801 2.05407 7.14819 2.05464 6.91387V3.67437H3.96424V2.4553H2.05464V0.460449H0.716218V6.8883C0.689195 7.30533 0.753478 7.72323 0.904582 8.11286C1.05569 8.50249 1.28997 8.85446 1.5911 9.14422C1.89223 9.43399 2.25295 9.65457 2.6481 9.79058C3.04325 9.92659 3.46332 9.97476 3.879 9.93172H4.03245Z" fill="white"/>
</svg>
