<svg width="60" height="38" viewBox="0 0 60 38" fill="none" xmlns="http://www.w3.org/2000/svg">
<g clip-path="url(#clip0_17_9410)">
<path fill-rule="evenodd" clip-rule="evenodd" d="M3.66284 31.0423H56.3553V3.0144H3.66284V31.0423Z" fill="white"/>
<path fill-rule="evenodd" clip-rule="evenodd" d="M2.22397 32.2357H57.6571V1.71484H2.22397V32.2357ZM29.9213 0.424488C38.8021 0.424488 47.6836 0.463304 56.5638 0.392141C58.3559 0.377438 58.9866 0.908516 58.973 2.727C58.9025 12.6163 58.9084 21.2336 58.9682 31.1223C58.9795 32.9149 58.3197 33.5207 56.5413 33.5172C38.7796 33.479 21.0173 33.4772 3.25561 33.5189C1.43692 33.5237 0.858918 32.8544 0.869578 31.0965C0.927615 21.2077 0.938867 12.5899 0.860103 2.70113C0.845297 0.848527 1.51568 0.37979 3.27812 0.393317C12.1584 0.46154 21.0404 0.424488 29.9213 0.424488Z" fill="white"/>
<path fill-rule="evenodd" clip-rule="evenodd" d="M40.2103 37.1675C40.125 36.7093 40.0409 36.7828 39.9379 36.2235H19.9743C19.8055 36.7099 19.6267 36.6929 19.4478 37.2081C19.2903 37.1992 19.1322 37.1892 18.9741 37.1798C18.9741 36.5053 18.7822 36.2741 19.0439 35.7201C19.2086 35.3719 20.0513 35.1884 20.592 35.1855C26.8079 35.149 33.025 35.1443 39.2408 35.1943C39.7922 35.1984 40.568 35.5137 40.8274 35.9342C41.1034 36.3823 40.889 36.5935 40.889 37.2081C40.6633 37.1951 40.4365 37.181 40.2103 37.1675Z" fill="white"/>
<path fill-rule="evenodd" clip-rule="evenodd" d="M29.4617 35.96H30.5383V32.7856H29.4617V35.96Z" fill="white"/>
</g>
<defs>
<clipPath id="clip0_17_9410">
<rect width="58.27" height="36.9968" fill="white" transform="translate(0.860107 0.21167)"/>
</clipPath>
</defs>
</svg>
