<svg width="26" height="22" viewBox="0 0 26 22" fill="#fff" xmlns="http://www.w3.org/2000/svg">
<g clip-path="url(#clip0_17_9965)">
<path d="M8.1728 21.5788C5.27629 21.5772 2.44073 20.7468 0.000976562 19.1856C0.423506 19.2325 0.848319 19.2559 1.27345 19.2556C3.68032 19.2479 6.01357 18.4249 7.89262 16.9208C6.78926 16.9072 5.71753 16.5503 4.82631 15.8996C3.93509 15.249 3.26862 14.337 2.91948 13.2902C3.25067 13.3513 3.58668 13.3826 3.92345 13.3836C4.39685 13.3871 4.86839 13.3242 5.32434 13.1968C4.10318 12.9494 3.00679 12.2832 2.22454 11.3134C1.44229 10.3436 1.02331 9.131 1.03997 7.88513C1.79751 8.29701 2.6413 8.52496 3.50319 8.55055C2.36618 7.80325 1.55765 6.64977 1.243 5.32604C0.928343 4.00232 1.13133 2.6084 1.81045 1.42939C3.15583 3.07947 4.83334 4.42801 6.73398 5.38738C8.63461 6.34675 10.7158 6.89547 12.8424 6.99791C12.6895 6.38387 12.6421 5.7483 12.7023 5.11839C12.8275 4.11242 13.2368 3.16295 13.8821 2.38116C14.5275 1.59937 15.3822 1.01762 16.3462 0.704044C17.3102 0.390464 18.3436 0.358031 19.3254 0.610541C20.3072 0.863051 21.1967 1.39005 21.8898 2.12983C23.0894 1.90046 24.2393 1.46183 25.2869 0.834016C24.8935 2.06955 24.0635 3.11949 22.9521 3.78755C24.0086 3.66502 25.04 3.38157 26.0107 2.94702C25.2941 4.01943 24.3929 4.9562 23.349 5.71376C23.349 5.93557 23.349 6.16905 23.349 6.40253C23.363 8.3994 22.98 10.3791 22.2223 12.2267C21.4645 14.0743 20.3472 15.7529 18.9352 17.1649C17.5231 18.5769 15.8446 19.6943 13.997 20.452C12.1494 21.2097 10.1697 21.5927 8.1728 21.5788Z" fill="white"/>
</g>
<defs>
<clipPath id="clip0_17_9965">
<rect width="25.9981" height="21.13" fill="white" transform="translate(0.000976562 0.44873)"/>
</clipPath>
</defs>
</svg>
